<svg xmlns="http://www.w3.org/2000/svg" width="233.11" height="585.512"><g id="Grupo_2012" data-name="Grupo 2012" transform="translate(-987.82 -182.383)"><g id="Grupo_1964" data-name="Grupo 1964" transform="translate(1060.723 170.244)"><path id="Trazado_1733" data-name="Trazado 1733" d="M133.917 273.564l123.462-5.939v385.044h-97.031l10.26-15.258z" transform="translate(-102.555 -55.019)" fill="#393768"/><path id="Trazado_1734" data-name="Trazado 1734" d="M40.249 149.617v85.13l120.6 29.641v-94.813a73.029 73.029 0 00-55.6-70.917 52.475 52.475 0 00-65 50.958z" transform="translate(-5.22 -26.293)" fill="#edeeef"/><g id="Grupo_1965" data-name="Grupo 1965" transform="translate(-51.941)"><path id="Trazado_1717" data-name="Trazado 1717" d="M108.813 84.957s-33.85 27.252-39.729 35.7c0 0-20.946-32.7-30.867-28.295s-20.211 13.964-16.9 14.7 8.452-1.1 8.452-1.1 1.06 11.759 6.961 11.024" fill="none" stroke="#000" stroke-linecap="round" stroke-linejoin="round" stroke-width="1.5"/><path id="Trazado_1730" data-name="Trazado 1730" d="M280.143 199.5L263 131.263s-33.807 3.429-41.156 24.5c0 0-16.169-11.269-32.337-6.859l26.948 73 43.291 9.559" transform="translate(-189.502 -35.344)" fill="#77a0d4"/><path id="Trazado_1732" data-name="Trazado 1732" d="M36.725 165.125s-4.388 59.162 44.117 54.018" fill="none" stroke="#000" stroke-linecap="round" stroke-linejoin="round" stroke-width="1.5"/><g id="Grupo_1967" data-name="Grupo 1967" transform="translate(998)"><g id="Grupo_1966" data-name="Grupo 1966" transform="translate(-873.677 17.361)"><path id="Trazado_1703" data-name="Trazado 1703" d="M144.749 23.738v13.685a22.986 22.986 0 0017.5 22.322l21.777 5.355V11.593l-18.108-4.451a17.09 17.09 0 00-21.169 16.6z" transform="translate(-144.749 -6.64)" fill="#edeeef"/><path id="Trazado_1704" data-name="Trazado 1704" d="M0 30.783a22.981 22.981 0 0017.5 22.322l2.138.526" fill="none" stroke="#000" stroke-linecap="round" stroke-linejoin="round" stroke-width="1.5"/><circle id="Elipse_209" data-name="Elipse 209" cx="1.05" cy="1.05" r="1.05" transform="translate(21.137 25.968)"/><circle id="Elipse_210" data-name="Elipse 210" cx="1.05" cy="1.05" r="1.05" transform="translate(5.007 25.968)"/><path id="Trazado_1705" data-name="Trazado 1705" d="M10.79 33.282V17.098H2.682" fill="none" stroke="#000" stroke-linecap="round" stroke-linejoin="round" stroke-width="1.5"/><path id="Línea_258" data-name="Línea 258" fill="none" stroke="#000" stroke-linecap="round" stroke-linejoin="round" stroke-width="1.5" d="M24.166 17.099h-8.108"/><g id="Grupo_1954" data-name="Grupo 1954" transform="translate(36.69 22.638)"><path id="Trazado_1706" data-name="Trazado 1706" d="M194.3 39.967v5.62a5.489 5.489 0 005.489-5.49q0-.252-.022-.5c-.307-3.408-5.467-3.053-5.467.37z" transform="translate(-194.301 -37.213)" fill="#edeeef"/><path id="Trazado_1707" data-name="Trazado 1707" d="M-.001 8.376a5.489 5.489 0 005.489-5.49" fill="none" stroke="#000" stroke-linecap="round" stroke-linejoin="round" stroke-width="1.5"/></g><path id="Trazado_1708" data-name="Trazado 1708" d="M15.223 38.174a3.635 3.635 0 005.14 0" fill="none" stroke="#000" stroke-linecap="round" stroke-linejoin="round" stroke-width="1.5"/><path id="Línea_259" data-name="Línea 259" fill="none" stroke="#000" stroke-linecap="round" stroke-linejoin="round" stroke-width="1.5" d="M10.789 33.296l3.546.872"/></g><path id="Trazado_1735" data-name="Trazado 1735" d="M-873.677 39.998s17.6-.911 22.447-14.24a.682.682 0 011.3.1c1.094 4.73 4.356 13.66 13.54 15.144" fill="none" stroke="#000" stroke-linecap="round" stroke-linejoin="round" stroke-width="1.5"/><path id="Trazado_1736" data-name="Trazado 1736" d="M-873.678 44.379s-9.593-6.4-4.04-18.128 26.779-18.026 38.5-8.89c0 0 23.756-2.856 21.349 30.783s.926 40.489-8.145 41.97-32.514-8.7-26.53-17.4 18.14-24.989 18.14-24.989" fill="none" stroke="#000" stroke-linecap="round" stroke-linejoin="round" stroke-width="1.5"/><path id="Trazado_1737" data-name="Trazado 1737" d="M-875.404 42.883s-10.705 25.944-7.5 31.621 19.042 2.838 19.042 2.838" fill="none" stroke="#000" stroke-linecap="round" stroke-linejoin="round" stroke-width="1.5"/></g><path id="Trazado_1758" data-name="Trazado 1758" d="M32.322 120.158l32.808 74.748" fill="none" stroke="#172328" stroke-width="1.5"/><path id="Trazado_1757" data-name="Trazado 1757" d="M186.707 88.045s42.1 35.8 16.13 112.723-162.981-13.289-161.2-37.726c1.163-15.924 19.33-3.455 19.33-3.455s.452-9.661 3.881-4.017a47.34 47.34 0 014.35 8.447l78.323.495.219-35.277" fill="#edeeef" stroke="#000" stroke-linecap="round" stroke-linejoin="round" stroke-width="1.5"/></g><path id="Línea_264" data-name="Línea 264" fill="none" stroke="#000" stroke-linecap="round" stroke-linejoin="round" stroke-width="1.5" d="M92.811 580.392l-30.45-363.847"/></g><g id="Grupo_2011" data-name="Grupo 2011" fill="none" stroke="#172328" stroke-width="1.5"><path id="Trazado_1751" data-name="Trazado 1751" d="M315.576-117.854s9.646-8.664 17.1-3.643" transform="translate(753 380)"/><path id="Trazado_1752" data-name="Trazado 1752" d="M315.576-117.854s9.646-8.664 17.1-3.643" transform="translate(753 370)"/></g><g id="Grupo_2010" data-name="Grupo 2010" fill="none" stroke="#172328" stroke-width="1.5"><path id="Trazado_1754" data-name="Trazado 1754" d="M315.576-117.854s9.646-8.664 17.1-3.643" transform="rotate(-39 1232.559 -877.94)"/><path id="Trazado_1753" data-name="Trazado 1753" d="M315.576-117.854s9.646-8.664 17.1-3.643" transform="rotate(-39 1218.439 -872.94)"/></g></g></svg>