<svg xmlns="http://www.w3.org/2000/svg" width="138.512" height="143.101"><defs><clipPath id="a"><path fill="none" d="M0 0h138.512v143.101H0z"/></clipPath></defs><g clip-path="url(#a)"><g transform="rotate(-40 -269.593 1823.668)"><g transform="translate(1075.877 654.8)" fill="none" stroke="#172328" stroke-width="1.5"><rect width="75.6" height="103.996" rx="4" stroke="none"/><rect x=".75" y=".75" width="74.1" height="102.496" rx="3.25"/></g><rect width="78.223" height="104.619" rx="4" transform="translate(1078.982 650.604)" fill="gray"/><g fill="none" stroke="#172328" stroke-width="1.5"><path d="M1092.914 650.646s1.731-11.415 6.394-9.255 4.538 9.255 4.538 9.255m9.595 0s1.731-11.415 6.394-9.255 4.538 9.255 4.538 9.255m9.672-.124s1.731-11.415 6.394-9.255 4.538 9.255 4.538 9.255m-63.812.37s1.731-11.415 6.394-9.255 4.538 9.255 4.538 9.255"/><path d="M1103.178 650.646s1.731-11.415 6.394-9.255 4.538 9.255 4.538 9.255m9.595 0s1.731-11.415 6.394-9.255 4.538 9.255 4.538 9.255m10.362.642s1.731-11.415 6.394-9.255 4.538 9.255 4.538 9.255"/></g></g></g></svg>