<svg xmlns="http://www.w3.org/2000/svg" width="255.964" height="564.001"><path d="M22.394 534.493c11.73-122.631 84.56-304.074 84.56-304.074l63.66-39.294-7.037 98.1-9.487 93.643-80.511 181.133L0 540.891z" fill="#e2e2e2"/><path d="M125.925 206.412s-14.351 234.242 26.184 345.149l-8.467 12.44h72.1s7.874-297.947 7.874-362.255z" fill="#edeeef"/><path d="M223.611 119.395v82.348l-116.657 28.675v-91.716a70.644 70.644 0 0153.783-68.6 50.762 50.762 0 0162.874 49.292z" fill="#77a0d4"/><path d="M125.925 206.408s-14.352 234.246 26.183 345.153m-7.02-475.584s-48.359 32.532-60.011 71.437 31.627 62.35 29.37 65.552" fill="none" stroke="#000" stroke-linecap="round" stroke-linejoin="round" stroke-width="1.5"/><path d="M185.819 166.571l6.2 14.945-42.7-4.619c9.922-5.203 22.504-8.872 36.5-10.326zm37.442 70.143c-.1 6.363-.212 13.226-.341 20.509-30.095-.247-69.228-16.522-86.891-33.951h-.008c-.225-.222-.44-.444-.658-.667l-.175-.178q-.446-.459-.869-.918l-.155-.166q-.428-.467-.833-.934c-.043-.05-.089-.1-.132-.151q-.41-.475-.794-.95l-.111-.134q-.391-.486-.758-.973l-.084-.11q-.373-.5-.719-.995l-.062-.087q-.351-.508-.673-1.014l-.044-.068q-.327-.517-.624-1.033l-.026-.045q-.3-.525-.569-1.048l-.015-.028q-.272-.532-.51-1.061v-.01a17.033 17.033 0 01-1.521-5.646c28.057 16.356 68.88 33.395 96.572 29.658z"/><g transform="rotate(-40 -72.865 1790.377)"><g transform="translate(1075.877 654.8)" fill="none" stroke="#172328" stroke-width="1.5"><rect width="75.6" height="103.996" rx="4" stroke="none"/><rect x=".75" y=".75" width="74.1" height="102.496" rx="3.25"/></g><rect width="78.223" height="104.619" rx="4" transform="translate(1078.982 650.604)" fill="gray"/><g fill="none" stroke="#172328" stroke-width="1.5"><path d="M1092.914 650.646s1.731-11.415 6.394-9.255 4.538 9.255 4.538 9.255m9.595 0s1.731-11.415 6.394-9.255 4.538 9.255 4.538 9.255m9.672-.124s1.731-11.415 6.394-9.255 4.538 9.255 4.538 9.255m-63.812.37s1.731-11.415 6.394-9.255 4.538 9.255 4.538 9.255"/><path d="M1103.178 650.646s1.731-11.415 6.394-9.255 4.538 9.255 4.538 9.255m9.595 0s1.731-11.415 6.394-9.255 4.538 9.255 4.538 9.255m10.362.642s1.731-11.415 6.394-9.255 4.538 9.255 4.538 9.255"/></g></g><path d="M211.367 86.318s63.558 84.325 37.437 134.062-152.141-25.119-153.563-38.391 28.217-6.161 28.217-6.161-3.571-24.172 11.6-.474l56.965 6.162-18.487-44.553" fill="none" stroke="#000" stroke-linecap="round" stroke-linejoin="round" stroke-width="1.5"/><g transform="translate(153.42 3.475)"><path d="M0 21.402v31.127l38.561 9.478V9.478L0 0z" fill="#edeeef"/><circle cx="1.031" cy="1.031" transform="translate(20.752 30.109)" r="1.031"/><circle cx="1.031" cy="1.031" transform="translate(4.916 30.109)" r="1.031"/><path d="M10.593 37.291V21.402h-7.96m21.092 0h-7.96M1.394 18.8h0" fill="none" stroke="#000" stroke-miterlimit="10" stroke-width="1.5"/><path d="M36.021 29.542v5.518a5.389 5.389 0 005.389-5.389q0-.248-.022-.491c-.302-3.346-5.367-2.997-5.367.362z" fill="#edeeef"/><path d="M36.021 35.061a5.389 5.389 0 005.389-5.389" fill="none" stroke="#000" stroke-miterlimit="10" stroke-width="1.5"/><path d="M12.726 43.133a5.454 5.454 0 007.712-.13" fill="none" stroke="#172328" stroke-linecap="round" stroke-linejoin="round" stroke-width="1.5"/><path fill="none" stroke="#000" stroke-miterlimit="10" stroke-width="1.5" d="M0 52.529l38.561 9.478"/><path fill="none" stroke="#000" stroke-linecap="round" stroke-miterlimit="10" stroke-width="1.5" d="M10.593 37.304l3.481.856"/></g><path d="M193.266 30.511s5.183-17.17-3-24.258-44.343-5.27-44.343-5.27-2.544 25.079 34.711 19.082c0 0 .542 6.95 6.724 8.178" fill="none" stroke="#000" stroke-miterlimit="10" stroke-width="1.5"/></svg>