<svg xmlns="http://www.w3.org/2000/svg" width="1420.488" height="165.112" version="1.1" id="svg895"><path d="M1417.975 161.874c-18.737-27.396-43.415-58.593-67.579-73.877-24.156-15.28-64.585-25.704-112.11-31.918-47.527-6.215-102.135-8.18-154.513-6.326-52.494 1.856-127.04 17.539-203.068 31.86-76.029 14.323-153.533 27.28-211.635 23.77-58.087-3.508-83.262-23.792-112.074-41.64-28.812-17.848-61.203-33.123-132.691-26.012-71.168 7.08-112.04-5.188-147.655-17.422-26.711-9.175-50.52-18.36-81.7-19.24-1.3-.037-2.613-.06-3.938-.066-9.28-.051-19.222.634-30.082 2.261-49.906 7.478-90.888 50.153-119.455 90.832C21.45 122.611 7.544 150.156 1 164.112" style="line-height:normal;font-variant-ligatures:normal;font-variant-position:normal;font-variant-caps:normal;font-variant-numeric:normal;font-variant-alternates:normal;font-variant-east-asian:normal;font-feature-settings:normal;font-variation-settings:normal;text-indent:0;text-align:start;text-decoration-line:none;text-decoration-style:solid;text-decoration-color:#000;text-transform:none;text-orientation:mixed;white-space:normal;shape-padding:0;shape-margin:0;inline-size:0;isolation:auto;mix-blend-mode:normal;solid-color:#000;solid-opacity:1" id="path2235" color="#000" font-style="normal" font-variant="normal" font-weight="400" font-stretch="normal" font-size="medium" font-family="sans-serif" text-decoration="none" letter-spacing="normal" word-spacing="normal" writing-mode="lr-tb" direction="ltr" dominant-baseline="auto" baseline-shift="baseline" text-anchor="start" clip-rule="nonzero" display="inline" overflow="visible" visibility="visible" opacity="1" color-interpolation="sRGB" color-interpolation-filters="linearRGB" vector-effect="none" fill="none" fill-opacity="1" fill-rule="nonzero" stroke="#77a0d4" stroke-width="1.5" stroke-linecap="round" stroke-linejoin="round" stroke-miterlimit="4" stroke-dasharray="none" stroke-dashoffset="0" stroke-opacity="1" color-rendering="auto" image-rendering="auto" shape-rendering="auto" text-rendering="auto" stop-color="#000" stop-opacity="1"/></svg>