<svg xmlns="http://www.w3.org/2000/svg" width="320.789" height="566.984"><path d="M224.778 205.687h-42.947s-46.159 236.275-31.978 335.544l-15.668 10.062 70.649 15.692 42.152-197.807z" fill="#e6e7e9"/><path d="M200.062 399.585c0 35.662 7.591 68.47 20.313 94.467l26.61-124.876-11.957-88.039c-21.338 28.017-34.966 70.665-34.966 118.448z"/><path d="M200.062 203.946l98.12-5.688v368.726h-70.007l8.154-14.611z" fill="#e6e7e9"/><path fill="none" stroke="#000" stroke-miterlimit="10" stroke-width="1.5" d="M236.33 552.372l-36.267-348.426"/><g transform="translate(207.806 13.205)"><path d="M0 16.374v13.105a22.012 22.012 0 0016.758 21.376l20.854 5.126V4.743L20.272.482A16.366 16.366 0 000 16.375z" fill="#edeeef"/><path d="M0 29.479a22.012 22.012 0 0016.758 21.376l20.854 5.126" fill="none" stroke="#000" stroke-miterlimit="10" stroke-width="1.5"/><circle cx="1.006" cy="1.006" r="1.006" transform="translate(20.241 24.867)"/><circle cx="1.006" cy="1.006" r="1.006" transform="translate(4.795 24.867)"/><path d="M10.332 31.872v-15.5H2.568m20.573.002h-7.764M1.359 13.836h0" fill="none" stroke="#000" stroke-miterlimit="10" stroke-width="1.5"/><path d="M35.135 24.315v5.383a5.258 5.258 0 005.257-5.257c0-.161-.007-.321-.022-.479-.295-3.264-5.235-2.925-5.235.353z" fill="#edeeef"/><path d="M35.135 29.697a5.258 5.258 0 005.257-5.257" fill="none" stroke="#000" stroke-miterlimit="10" stroke-width="1.5"/><path d="M14.577 38.474a3.48 3.48 0 004.923 0" fill="none" stroke="#172328" stroke-linecap="round" stroke-linejoin="round" stroke-width="1.5"/><path fill="none" stroke="#000" stroke-linecap="round" stroke-miterlimit="10" stroke-width="1.5" d="M10.332 31.884l3.396.835"/></g><path d="M207.805 36.377s13.916-6.027 17.639-13.915v5.315s6.825-1.6 9.041-4.786c0 0 1.166 11.788 8.693 13.384" fill="none" stroke="#000" stroke-miterlimit="10" stroke-width="1.5"/><path d="M245.417 53.515s17.607-13.058 9.275-32.735-29.6-14-48.748-12.231c-10.086.934-22.779-2.708-32.533-6.363a21.89 21.89 0 00-25.433 7.6h0s-16.663-7.622-20.563 10.813 35.918 52.737 89.042 39.574" fill="none" stroke="#000" stroke-miterlimit="10" stroke-width="1.5"/><path d="M181.831 123.554v82.133l116.352 28.6v-91.479a70.457 70.457 0 00-53.64-68.421 50.627 50.627 0 00-62.711 49.164z" fill="#f2bc08"/><path d="M213.103 134.117L85.495 186.902a85.376 85.376 0 00-34.242 25.819l-18.825 23.717 37.343-.02a85.367 85.367 0 0032.29-6.359l128.827-52.712a23.372 23.372 0 009.15-36.538 23.373 23.373 0 00-26.935-6.692z" fill="#e6e7e9"/><path d="M32.428 236.438l37.343-.02a85.367 85.367 0 0032.29-6.359l128.827-52.712" fill="none" stroke="#000" stroke-miterlimit="10" stroke-width="1.5"/><path d="M275.967 91.461s42.643 31.069 44.061 98.43-138.2-26.59-138.2-26.59-9.288.439-12.479-9.708c0 0-6.027-.347-5.318-2.942s17.018-12.522 44.316-11.1 73.742 18.79 73.742 18.79" fill="none" stroke="#000" stroke-miterlimit="10" stroke-width="1.5"/><path d="M32.428 236.438l23.482-.012a41.7 41.7 0 00-8.526-18.832z"/><path d="M193.288 91.461a337.5 337.5 0 00-41.45 68m-24.685 60.332s26.3 17.487 52.6 7.223m-77.288-45.279s2.217-18.888 14.89-16.072 11.56 7.513 9.8 7.893-9.4 0-9.4 0l-4.658 1.926" fill="none" stroke="#000" stroke-miterlimit="10" stroke-width="1.5"/><path d="M123.704 354.082c-1.186-.193-9.82-15.406-11.14-15.738-7.038-1.77-14.26-8.406-14.935-8.732-2.982-1.441-9.332-7.186-10.84-17.764-.774-5.43 2.658-19.203-4.569-30.195-7.024-10.685-21.841-15.596-26.59-14.802-1.813.303-33.939-2.708-29.685-21.516" fill="none" stroke="#172328" stroke-linecap="round" stroke-linejoin="round" stroke-width="3" stroke-dasharray="4 17.095" opacity=".382"/></svg>