<svg xmlns="http://www.w3.org/2000/svg" id="svg12" version="1.1" height="139.164" width="1366.168"><defs id="defs16"><clipPath id="clipPath22" clipPathUnits="userSpaceOnUse"><path d="M-5-6.98h1376.168v149.164H-5zM687.089.903c-10.222-.6-20.051-.903-29.215-.907-8.328.001-16.349.251-23.849.746-7.374.486-14.568 1.248-21.381 2.267a215.587 215.587 0 00-18.884 3.665 184.3 184.3 0 00-31.664 10.7c-18.86 8.357-34.001 18.9-48.647 29.1-7.661 5.332-15.582 10.848-23.846 15.9a187.167 187.167 0 01-26.828 13.761 167.753 167.753 0 01-33.08 9.679 206.634 206.634 0 01-19.907 2.7c-7.2.634-14.837.955-22.7.955a367.1 367.1 0 01-39.311-2.281 435.987 435.987 0 00-46.8-2.662 317.871 317.871 0 00-71.464 7.75c-9.342 2.131-18.731 4.729-28.7 7.943-9.568 3.084-18.418 6.333-25.818 9.105-2.821 1.057-5.65 2.128-8.386 3.164l-.158.06c-14.954 5.663-29.079 11.011-44.1 15a198.561 198.561 0 01-23.288 4.783 179.576 179.576 0 01-25.484 1.791 208.448 208.448 0 01-33.953-2.885 119.305 119.305 0 01-19.756-5.04 139.431 139.431 0 01-18.9-8.222q-.485-.255-.97-.513v1377.792h1366.005V50.532c-14.058 3.839-29.58 7.239-46.366 10.139-45.407 7.854-99.316 12.006-155.9 12.006-14.737 0-29.641-.287-44.3-.854-52.32-2.021-123.457-16.896-198.77-32.644-45.371-9.487-92.285-19.297-137.2-26.717-24.259-4.007-45.685-6.957-65.5-9.014-10.77-1.118-21.159-1.975-30.88-2.545z" class="powerclip" id="lpe_path-effect26"/></clipPath></defs><path transform="translate(0 1.98)" d="M0-1.98h1366.168v139.164H0z" clip-path="url(#clipPath22)" id="rect20" fill="#fff" stroke-width="1.035"/></svg>