<svg xmlns="http://www.w3.org/2000/svg" width="264.178" height="564.935"><g id="Grupo_2070" data-name="Grupo 2070" transform="translate(-929.014 -201.167)"><g id="Grupo_2038" data-name="Grupo 2038" transform="translate(942.917 202)"><path id="Trazado_1599" data-name="Trazado 1599" d="M113.65 95.367l-37.2 52.953s-38.765-40.85-53.468-37.302-21.723 5.063-21.723 5.063l1.402 5.098 9.276 2.106s2.331 15.404 13.19 12.35c0 0 22.59 93.294 80.848 63.746" fill="none" stroke="#000" stroke-miterlimit="10" stroke-width="1.501"/><g id="Grupo_789" data-name="Grupo 789" transform="translate(93.074)"><path id="Trazado_1602" data-name="Trazado 1602" d="M-1822.373 637.811l-19.279-353.258h-56.882s-8.251 248.794 9.427 337.184l-11.35 16.074z" transform="translate(1900.457 -74.73)" fill="#e6e7e9"/><path id="Trazado_1603" data-name="Trazado 1603" d="M-1872.567 279.638l81.176-5.561 14.76 6.011 6.937 354.51h-75.4l7.972-14.286z" transform="translate(1891.903 -71.517)" fill="#e6e7e9"/><path id="Trazado_1604" data-name="Trazado 1604" d="M46.812 563.082l7.972-14.286-35.448-340.673" fill="none" stroke="#000" stroke-linecap="round" stroke-linejoin="round" stroke-width="1.5"/><path id="Trazado_1611" data-name="Trazado 1611" d="M-1897.683 146.81v80.306l113.763 27.961v-89.439a68.89 68.89 0 00-52.447-66.9 49.5 49.5 0 00-61.316 48.07z" transform="translate(1899.606 -17.292)" fill="#f2bc08"/><path id="Trazado_1615" data-name="Trazado 1615" d="M-1861.584 128.805l-16.317 84.971 6.009 15.714 15.107-12.941-1.01-87.123 5.315-7.626h-12.71z" transform="translate(1893.539 -24.812)"/><path id="Trazado_1616" data-name="Trazado 1616" d="M100.548 108.011s57.265 43.52 55.878 110.075-68.481 74.875-68.481 74.875L74.7 273.174l34.471-58.467-31.086-38.911" fill="none" stroke="#000" stroke-linecap="round" stroke-linejoin="round" stroke-width="1.5"/><path id="Línea_259" data-name="Línea 259" fill="none" stroke="#000" stroke-linecap="round" stroke-linejoin="round" stroke-width="1.5" d="M87.945 292.958l-22.802-34.063"/><g id="Grupo_819" data-name="Grupo 819" transform="translate(17.353)"><g id="Grupo_809" data-name="Grupo 809" transform="translate(11.546 17.6)"><path id="Trazado_1671" data-name="Trazado 1671" d="M109.421 41.9v13.174a22.123 22.123 0 0016.842 21.484l20.959 5.151v-51.5L129.8 25.93a16.448 16.448 0 00-20.379 15.97z" transform="translate(-109.421 -25.447)" fill="#edeeef"/><path id="Trazado_1672" data-name="Trazado 1672" d="M0 29.627a22.123 22.123 0 0016.842 21.479l20.959 5.151" fill="none" stroke="#000" stroke-linecap="round" stroke-linejoin="round" stroke-width="1.5"/><circle id="Elipse_173" data-name="Elipse 173" cx="1.011" cy="1.011" transform="translate(20.343 24.993)" r="1.011"/><circle id="Elipse_174" data-name="Elipse 174" cx="1.011" cy="1.011" transform="translate(4.819 24.993)" r="1.011"/><path id="Trazado_1673" data-name="Trazado 1673" d="M10.386 32.032V16.456h-7.8" fill="none" stroke="#000" stroke-linecap="round" stroke-linejoin="round" stroke-width="1.5"/><path id="Línea_272" data-name="Línea 272" fill="none" stroke="#000" stroke-linecap="round" stroke-linejoin="round" stroke-width="1.5" d="M23.258 16.456h-7.803"/><g id="Grupo_808" data-name="Grupo 808" transform="translate(35.312 21.787)"><path id="Trazado_1674" data-name="Trazado 1674" d="M105.5 58.67v5.41a5.283 5.283 0 005.283-5.283q0-.243-.021-.481c-.296-3.282-5.262-2.94-5.262.354z" transform="translate(-105.501 -56.02)" fill="#edeeef"/><path id="Trazado_1675" data-name="Trazado 1675" d="M-.001 8.061a5.283 5.283 0 005.283-5.283" fill="none" stroke="#000" stroke-linecap="round" stroke-linejoin="round" stroke-width="1.5"/></g><path id="Trazado_1676" data-name="Trazado 1676" d="M14.651 36.272a3.5 3.5 0 004.947 0" fill="none" stroke="#172328" stroke-linecap="round" stroke-linejoin="round" stroke-width="1.5"/><path id="Línea_273" data-name="Línea 273" fill="none" stroke="#000" stroke-linecap="round" stroke-linejoin="round" stroke-width="1.5" d="M10.384 32.045l3.413.839"/></g><path id="Trazado_1677" data-name="Trazado 1677" d="M46.858 39.387S37.5 32.569 36.312 26.393c0 0-18.766 8.077-29.693.951" fill="none" stroke="#000" stroke-linecap="round" stroke-linejoin="round" stroke-width="1.5"/><path id="Trazado_1678" data-name="Trazado 1678" d="M49.499 55.73s18.407-5.7 18.229-20.488-20.87-21.023-20.87-21.023S26.039-11.97 9.473 6.737s-1.6 47.043-8.017 53.808 9.655 14.533 23.89 7.175" fill="none" stroke="#000" stroke-linecap="round" stroke-linejoin="round" stroke-width="1.5"/></g></g></g><g id="Grupo_2067" data-name="Grupo 2067" fill="none" stroke="#f2bc08" stroke-linecap="round" stroke-width="1.5"><path id="Trazado_1867" data-name="Trazado 1867" d="M1021.917-53l-6.542 5.154" transform="translate(-79 380)"/><path id="Trazado_1868" data-name="Trazado 1868" d="M1015.375-53l6.542 5.154" transform="translate(-82 360)"/><path id="Trazado_1869" data-name="Trazado 1869" d="M1015.375-53l6.542 5.154" transform="rotate(-36 1545.515 263.625)"/></g></g></svg>