<svg xmlns="http://www.w3.org/2000/svg" width="1365.999" height="149.366" version="1.1" id="svg3"><path id="Intersección_1" data-name="Intersección 1" d="M687.088.91c9.717.582 20.106 1.456 30.879 2.6 19.817 2.1 41.243 5.11 65.5 9.2 44.9 7.572 91.8 17.58 137.159 27.257l.04.01c75.315 16.07 146.452 31.25 198.772 33.313 14.663.579 29.566.87 44.294.87 56.584 0 110.494-4.235 155.9-12.252 16.786-2.963 32.309-6.428 46.367-10.346v97.804L0 149.365v-29.508c.323.176.647.35.97.523a137.836 137.836 0 0018.9 8.39 117.347 117.347 0 0019.756 5.144 204.284 204.284 0 0033.953 2.943c8.528.01 17.046-.602 25.485-1.827a195.283 195.283 0 0023.289-4.881c15.018-4.07 29.141-9.527 44.094-15.3h.01c2.626-1.015 5.6-2.165 8.539-3.29 7.4-2.827 16.252-6.142 25.817-9.29 9.968-3.28 19.356-5.931 28.7-8.1a311.7 311.7 0 0171.464-7.91c15.638.05 31.261.957 46.8 2.718a359.954 359.954 0 0039.309 2.328c7.861 0 15.5-.328 22.7-.975 6.869-.617 13.567-1.544 19.907-2.76a165.27 165.27 0 0033.081-9.876 185.8 185.8 0 0026.828-14.044c8.263-5.154 16.183-10.783 23.843-16.226h.006c14.643-10.407 29.785-21.167 48.645-29.692A181.756 181.756 0 01593.76 6.815c6.044-1.492 12.4-2.75 18.884-3.74 6.809-1.04 14-1.817 21.381-2.314 7.5-.5 15.519-.76 23.847-.76 9.165-.015 18.994.295 29.217.91z" fill="#b9aede"/></svg>