<svg xmlns="http://www.w3.org/2000/svg" width="91.677" height="78.347"><g id="Grupo_997" data-name="Grupo 997" transform="translate(14.249 -19.947)"><g id="Grupo_987" data-name="Grupo 987" transform="translate(-139.119 -4.277)"><g id="Grupo_307" data-name="Grupo 307" transform="translate(137.399 24.224)"><g id="Grupo_298" data-name="Grupo 298"><path id="Trazado_526" data-name="Trazado 526" d="M660.109 197.243a36.1 36.1 0 1036.1 36.1h-36.1z" transform="translate(-624.011 -197.243)" fill="#e6e7e9"/><path id="Trazado_527" data-name="Trazado 527" d="M0 36.098a36.1 36.1 0 0072.2 0" fill="none" stroke="#172328" stroke-miterlimit="10" stroke-width="1.5"/><path id="Trazado_528" data-name="Trazado 528" d="M787.259 324.393h-36.1l29.053 21.425a35.934 35.934 0 007.047-21.425z" transform="translate(-715.063 -288.295)" fill="#172328"/><path id="Trazado_529" data-name="Trazado 529" d="M751.161 158.79v36.1h36.1a36.1 36.1 0 00-36.1-36.1z" transform="translate(-715.063 -158.79)" fill="#00819f"/></g></g></g><g id="Grupo_988" data-name="Grupo 988" transform="translate(-13.339 81.416)" fill="none" stroke="#172328" stroke-linecap="round" stroke-width="1.5"><path id="Trazado_1796" data-name="Trazado 1796" d="M8.517 92.143s-4.465 2.744-6.855-6.727" transform="translate(3.339 -85.416)"/><path id="Trazado_1797" data-name="Trazado 1797" d="M8.517 92.143s-4.465 2.744-6.855-6.727" transform="translate(-1.661 -80.416)"/></g><g id="Grupo_989" data-name="Grupo 989" transform="translate(64.661 85.416)" fill="none" stroke="#172328" stroke-linecap="round" stroke-width="1.5"><path id="Trazado_1796-2" data-name="Trazado 1796" d="M1.661 92.143s4.465 2.744 6.855-6.727" transform="translate(-1.661 -85.416)"/><path id="Trazado_1797-2" data-name="Trazado 1797" d="M1.661 92.143s4.465 2.744 6.855-6.727" transform="translate(3.339 -80.416)"/></g></g></svg>