<svg xmlns="http://www.w3.org/2000/svg" width="313.163" height="582.594"><g id="Grupo_937" data-name="Grupo 937" transform="translate(14.249 -.248)"><path id="Trazado_1636" data-name="Trazado 1636" d="M103.083 280.848l89.655-5.895 23.219 91.577 53.307 290.587h-72.558l8.451-15.144z" transform="translate(9.145 -74.275)" fill="#edeeef"/><path id="Trazado_1637" data-name="Trazado 1637" d="M265.619 713.513L261.21 548.16l70.551 13.228-16.381 168.155h-60.3z" transform="translate(-165.056 -146.701)" fill="#e2e2e2"/><path id="Trazado_1638" data-name="Trazado 1638" d="M189.735 473.159s11.223 3.462 26.075 9.109l14.345 78.2c-26.152 4.771-51.617 4.756-73.883 2.635l-15.947-56.421z" transform="translate(20.885 -126.819)"/><path id="Trazado_1639" data-name="Trazado 1639" d="M195.775 285.43l88.294 183.085s-104.72 55.115-208.887 25.353v-189.6z" transform="translate(14.845 -77.052)" fill="#f2bc08"/><g id="Grupo_940" data-name="Grupo 940" transform="translate(-370.719 1085.756)"><g id="Grupo_940-2" data-name="Grupo 940" transform="translate(502.997 -1074.184)"><path id="Trazado_1543" data-name="Trazado 1543" d="M673.949 231.336v13.549a22.758 22.758 0 0017.327 22.1l21.561 5.3V219.31l-17.928-4.41a16.921 16.921 0 00-20.96 16.431z" transform="translate(-673.949 -214.408)" fill="#edeeef"/><path id="Trazado_1544" data-name="Trazado 1544" d="M0 30.478a22.758 22.758 0 0017.327 22.1l21.561 5.3" fill="none" stroke="#000" stroke-miterlimit="10" stroke-width="1.5"/><circle id="Elipse_178" data-name="Elipse 178" cx="1.04" cy="1.04" r="1.04" transform="translate(20.927 25.71)"/><circle id="Elipse_179" data-name="Elipse 179" cx="1.04" cy="1.04" r="1.04" transform="translate(4.958 25.71)"/><path id="Trazado_1545" data-name="Trazado 1545" d="M10.683 32.947V16.928H2.656" fill="none" stroke="#000" stroke-miterlimit="10" stroke-width="1.5"/><path id="Línea_247" data-name="Línea 247" fill="none" stroke="#000" stroke-miterlimit="10" stroke-width="1.5" d="M23.926 16.928h-8.027"/><path id="Línea_248" data-name="Línea 248" fill="none" stroke="#000" stroke-miterlimit="10" stroke-width="1.5" d="M1.406 14.305h0"/><g id="Grupo_803" data-name="Grupo 803" transform="translate(36.326 22.413)"><path id="Trazado_1546" data-name="Trazado 1546" d="M713.591 241.591v5.565a5.435 5.435 0 005.434-5.435q0-.25-.022-.495c-.303-3.374-5.412-3.026-5.412.365z" transform="translate(-713.591 -238.866)" fill="#edeeef"/><path id="Trazado_1547" data-name="Trazado 1547" d="M0 8.291a5.435 5.435 0 005.434-5.435" fill="none" stroke="#000" stroke-miterlimit="10" stroke-width="1.5"/></g><path id="Trazado_1548" data-name="Trazado 1548" d="M15.075 37.824a3.6 3.6 0 005.09 0" fill="none" stroke="#172328" stroke-linecap="round" stroke-linejoin="round" stroke-width="1.5"/><path id="Línea_249" data-name="Línea 249" fill="none" stroke="#000" stroke-linecap="round" stroke-miterlimit="10" stroke-width="1.5" d="M10.683 32.965l3.511.863"/></g><path id="Trazado_1629" data-name="Trazado 1629" d="M539.323-1051.772s-24.471 2.15-31.369-13.123c0 0-1.063 8.431-4.958 9.775" fill="none" stroke="#000" stroke-miterlimit="10" stroke-width="1.5"/><path id="Trazado_1630" data-name="Trazado 1630" d="M502.997-1047.435s-11.1-14.038-1.084-28.211 31.278-7.576 31.278-7.576 24.192 10.01 59.136 9.037c14.052-.391 21.15 3.828 24.613 9.011a48.292 48.292 0 0026.02 19.056c7.107 2.214 12.249 6.821 8.99 16.111-7.819 22.293-95.3 11.3-111.43 2.256" fill="none" stroke="#000" stroke-miterlimit="10" stroke-width="1.5"/></g><path id="Trazado_1640" data-name="Trazado 1640" d="M191.2 154.093v84.589L71.372 268.134v-94.209a72.565 72.565 0 0155.245-70.467 52.142 52.142 0 0164.583 50.635z" transform="translate(19.078 -28.041)" fill="#edeeef"/><path id="Trazado_1641" data-name="Trazado 1641" d="M187.934 83.265s67.35 50.131 73.679 115.367-116.395 91.04-139.5-19.96c0 0-11.908-7.3-8.013-18.5 0 0-9.507-6.816-6.7-9.25s97.254 41.381 97.254 41.381l-34.982-37.974" fill="none" stroke="#000" stroke-linecap="round" stroke-linejoin="round" stroke-width="1.5"/><path id="Trazado_1642" data-name="Trazado 1642" d="M104.279 103.275s-32.408 30.263-40.684 65.8c0 0-5.966-58.436-13.268-65.8s-10.711 0-10.711 0-25.315-11.352-25.315-3.274 16.552 16.841 16.552 16.841-33.19 158.711 59.6 117.33" fill="none" stroke="#000" stroke-linecap="round" stroke-linejoin="round" stroke-width="1.5"/><g id="Grupo_987" data-name="Grupo 987" transform="translate(-139.119 -4.277)"><g id="Grupo_307" data-name="Grupo 307" transform="translate(137.399 24.224)"><g id="Grupo_298" data-name="Grupo 298"><path id="Trazado_526" data-name="Trazado 526" d="M660.109 197.243a36.1 36.1 0 1036.1 36.1h-36.1z" transform="translate(-624.011 -197.243)" fill="#e6e7e9"/><path id="Trazado_527" data-name="Trazado 527" d="M0 36.098a36.1 36.1 0 0072.2 0" fill="none" stroke="#172328" stroke-miterlimit="10" stroke-width="1.5"/><path id="Trazado_528" data-name="Trazado 528" d="M787.259 324.393h-36.1l29.053 21.425a35.934 35.934 0 007.047-21.425z" transform="translate(-715.063 -288.295)" fill="#172328"/><path id="Trazado_529" data-name="Trazado 529" d="M751.161 158.79v36.1h36.1a36.1 36.1 0 00-36.1-36.1z" transform="translate(-715.063 -158.79)" fill="#00819f"/></g></g></g><g id="Grupo_988" data-name="Grupo 988" transform="translate(-13.339 81.416)" fill="none" stroke="#172328" stroke-linecap="round" stroke-width="1.5"><path id="Trazado_1796" data-name="Trazado 1796" d="M8.517 92.143s-4.465 2.744-6.855-6.727" transform="translate(3.339 -85.416)"/><path id="Trazado_1797" data-name="Trazado 1797" d="M8.517 92.143s-4.465 2.744-6.855-6.727" transform="translate(-1.661 -80.416)"/></g><g id="Grupo_989" data-name="Grupo 989" transform="translate(64.661 85.416)" fill="none" stroke="#172328" stroke-linecap="round" stroke-width="1.5"><path id="Trazado_1796-2" data-name="Trazado 1796" d="M1.661 92.143s4.465 2.744 6.855-6.727" transform="translate(-1.661 -85.416)"/><path id="Trazado_1797-2" data-name="Trazado 1797" d="M1.661 92.143s4.465 2.744 6.855-6.727" transform="translate(3.339 -80.416)"/></g></g></svg>