<svg xmlns="http://www.w3.org/2000/svg" id="svg56" version="1.1" height="157.067" width="1362.973"><defs id="defs60"><clipPath id="clipPath66" clipPathUnits="userSpaceOnUse"><path id="path68" fill="#f2bc08" d="M1377 887.305H0V.005h13.868c14.448 15.13 51.892 51.807 87.474 65.577 9.676 3.744 22.557 7.122 38.286 10.04 14.857 2.756 32.319 5.116 51.9 7.014 36.844 3.571 80.584 5.458 126.492 5.458 11.955 0 24.047-.13 35.941-.388 42.453-.919 100.176-7.681 161.288-14.841 36.809-4.312 74.871-8.771 111.317-12.145 19.681-1.822 37.064-3.162 53.145-4.1 18.133-1.055 34.082-1.568 48.756-1.568 6.752 0 13.262.114 19.348.339a281.178 281.178 0 0132.737 2.966 189.449 189.449 0 0125.082 5.544c14.724 4.358 26.144 9.91 37.188 15.279 5.758 2.8 11.711 5.693 18.011 8.35a166.365 166.365 0 0020.729 7.236 181.68 181.68 0 0026.345 5.095 286.089 286.089 0 0034.858 1.927c8.8 0 18.363-.31 28.414-.922 7.681-.467 15.3-.7 22.633-.7a296.663 296.663 0 0170.3 8.063c9.212 2.218 18.468 4.921 28.3 8.265 9.444 3.213 18.174 6.593 25.469 9.475 2.85 1.126 5.707 2.267 8.469 3.371l.091.036c14.72 5.881 28.621 11.436 43.36 15.576a185.925 185.925 0 0022.817 4.964 165.529 165.529 0 0024.882 1.849c5.362 0 10.89-.258 16.43-.765a115.68 115.68 0 0026.335-5.624 136.942 136.942 0 0024.152-10.956c14.047-8.037 27.94-18.978 41.294-32.519a297.437 297.437 0 0031.169-37.689 359.835 359.835 0 0020.117-32.089z"/></clipPath></defs><path transform="translate(-13.868 -.005)" clip-path="url(#clipPath66)" id="rect64" fill="#fff" fill-opacity="1" stroke-width=".994" d="M13.868.005h1362.973v157.067H13.868z"/></svg>