<svg xmlns="http://www.w3.org/2000/svg" id="svg953" version="1.1" height="553.036" width="357.338"><g transform="translate(.001 -.021)" id="g1014"><path id="path897" stroke-width="3.5" stroke-linejoin="round" stroke-linecap="round" stroke="#000" fill="none" d="M243.382 349.931v194.186"/><path id="path899" stroke-width="1.5" stroke-linejoin="round" stroke-linecap="round" stroke="#f2bc08" fill="#f2bc08" d="M288.096 112.221s16.416-34.085 30-4.651 72.944 223.4 10.3 255.848c-62.644 32.448-154.242 14.629-154.242 14.629"/><path id="path901" fill="#172328" d="M199.694 553.057c6.001-7.102 15.584-21.657 42.832-21.24 27.248.418 43.59 21.24 43.59 21.24"/><g id="g947" transform="translate(0 .75)"><path id="path903" fill="#393768" transform="translate(3045.812 2000.388)" d="M-2873.2-1784.332l61.92 3.972-71.414 126.792 53.585 147.924-68.742 43.795.669-21.908s-46.644-50.566-82.115-164.528c-35.471-113.962 106.097-136.047 106.097-136.047z"/><path id="path905" transform="translate(3002.281 1965.248)" d="M-2881.931-1633.523l42.264-7.547 10.665 4.6-10.161 18.041 11.04 30.478s-45.177 18.362-70.531 68.219q-3.14-6.287-6.349-13.16c6.825-37.154 23.072-100.631 23.072-100.631z"/><path id="path907" fill="#393768" transform="translate(3068.115 1997.45)" d="M-3055.941-1505.725s13.816-267.484 197.226-266.626l87.053 21.4s21.643 118.7-159.48 111.907l-65.657 169.8-71.317-24.9z"/><path id="path909" stroke-width="1.5" stroke-linejoin="round" stroke-linecap="round" stroke="#000" fill="none" d="M12.176 491.725s13.816-267.484 197.226-266.626"/><path id="path911" stroke-width="1.5" stroke-linejoin="round" stroke-linecap="round" stroke="#000" fill="none" d="M296.454 246.495s21.643 118.7-159.48 111.907l-65.657 169.8"/><g id="g935" transform="translate(214.515 6.389)"><path id="path913" fill="#edeeef" transform="translate(3011.524 2062.142)" d="M-3011.524-2039.922v32.317l40.034 9.84v-54.535l-40.034-9.84z"/><circle id="circle915" transform="translate(21.544 31.26)" r="1.07" cy="1.07" cx="1.07"/><circle id="circle917" transform="translate(5.103 31.26)" r="1.07" cy="1.07" cx="1.07"/><path id="path919" stroke-width="1.5" stroke-linejoin="round" stroke-linecap="round" stroke="#000" fill="none" d="M10.997 38.72v-16.5H2.733"/><path id="line921" stroke-width="1.5" stroke-linejoin="round" stroke-linecap="round" stroke="#000" fill="none" d="M24.631 22.22h-8.264"/><g id="g927" transform="translate(37.397 27.866)"><path id="path923" fill="#edeeef" transform="translate(3015.444 2025.22)" d="M-3015.444-2022.413v5.728a5.6 5.6 0 005.595-5.6q0-.257-.023-.509c-.313-3.47-5.572-3.106-5.572.381z"/><path id="path925" stroke-width="1.5" stroke-linejoin="round" stroke-linecap="round" stroke="#000" fill="none" d="M0 8.536a5.6 5.6 0 005.595-5.6"/></g><path id="path929" stroke-width="1.5" stroke-linejoin="round" stroke-linecap="round" stroke="#172328" fill="none" d="M14.612 45.602a5.662 5.662 0 005.663-5.662"/><path id="line931" stroke-width="1.5" stroke-linejoin="round" stroke-linecap="round" stroke="#000" fill="none" d="M0 54.536l40.034 9.84"/><path id="line933" stroke-width="1.5" stroke-linejoin="round" stroke-linecap="round" stroke="#000" fill="none" d="M10.997 38.729l3.614.888"/></g><path id="path937" fill="#e6e7e9" transform="translate(3239.659 2046.322)" d="M-3067.048-1917.687v87.421l123.843 30.438v-97.363a74.993 74.993 0 00-57.094-72.826 53.887 53.887 0 00-66.749 52.329z"/><path id="path939" stroke-width="1.5" stroke-linejoin="round" stroke-linecap="round" stroke="#000" fill="none" d="M251.912 34.254a32.563 32.563 0 01-6.4-12.906s-23.751 7.83-33.49-5.283c-4.414-5.944-2.361-11.743-.289-15.169a1.787 1.787 0 013.062-.06c.964 1.687 3.233 3.072 8.548 1.078 8.956-3.358 27.6-2.264 30.566 9.057 0 0 13.208 3.679 1.863 23.444"/><path id="path941" stroke-width="1.5" stroke-linejoin="round" stroke-linecap="round" stroke="#000" fill="none" d="M266.785 89.383s51.048 41.922 63.878 109.679c12.83 67.757-88.9 51.476-137.358 31.531"/><path id="path943" stroke-width="1.5" stroke-linejoin="round" stroke-linecap="round" stroke="#000" fill="none" d="M276.702 195.038s-115.094-20.344-123.019 30.059"/><path id="path945" stroke-width="1.5" stroke-linejoin="round" stroke-linecap="round" stroke="#000" fill="none" d="M189.58 89.383s-36.12 37.271-45.646 105.654c0 0-36.636 1.26-38.1 30.059"/></g></g></svg>