<svg xmlns="http://www.w3.org/2000/svg" id="svg835" version="1.1" height="113.061" width="1364.971" preserveAspectRatio="none"><path d="M0 0v99.16l.684.305a154.161 154.161 0 0018.898 6.922 137.935 137.935 0 0019.758 4.244 246.58 246.58 0 0033.951 2.43 212.829 212.829 0 0025.484-1.51 231.513 231.513 0 0023.29-4.028c15.02-3.358 29.144-7.86 44.1-12.627l.095-.03a2363.2 2363.2 0 018.447-2.682c7.4-2.334 16.26-5.071 25.818-7.666 9.968-2.706 19.356-4.894 28.705-6.688a375.294 375.294 0 0171.465-6.525c14.788 0 30.534.753 46.801 2.24 13.942 1.276 27.17 1.922 39.313 1.922 7.865 0 15.499-.269 22.699-.799 6.868-.509 13.566-1.275 19.906-2.275a192.472 192.472 0 0033.08-8.149 202.487 202.487 0 0026.828-11.588c8.266-4.254 16.187-8.9 23.846-13.388 14.643-8.586 29.785-17.463 48.646-24.5a208.994 208.994 0 0131.663-9.008 254.557 254.557 0 0118.884-3.086c6.813-.857 14.007-1.498 21.381-1.906 7.5-.417 15.522-.63 23.848-.63 9.16 0 18.99.256 29.213.762 9.716.48 20.106 1.2 30.879 2.143 19.815 1.732 41.24 4.214 65.5 7.588 44.914 6.248 91.827 14.507 137.199 22.494 75.314 13.259 146.45 25.783 198.771 27.484 14.662.477 29.563.72 44.293.72 56.585 0 110.495-3.497 155.9-10.11 16.495-2.403 31.762-5.203 45.626-8.37V0z" id="rect843" fill="#fff" fill-opacity="1" stroke="none" stroke-width="1.607" stroke-miterlimit="4" stroke-dasharray="none"/></svg>