<svg xmlns="http://www.w3.org/2000/svg" width="240.879" height="583.309"><path d="M113.805 93.735s-12.822 11.979-31.146 27.372" fill="none" stroke="#000" stroke-linecap="round" stroke-linejoin="round" stroke-width="1.5"/><path d="M92.86 239.398s-69.548 200.872 0 318.505l-7.408 20.888 59.747-25.286-7.479-167.1s47.168-104.6 42.524-124.857-5.728-49.863-5.728-49.863" fill="#e2e2e2"/><path d="M112.419 214.646s-14.8 241.5 26.994 355.839l-8.729 12.825h74.329s8.121-307.172 8.121-373.472z" fill="#edeeef"/><g transform="translate(132.764 6.216)"><path d="M0 21.579v31.385l38.88 9.556V9.556L0 0z" fill="#edeeef"/><circle cx="1.04" cy="1.04" r="1.04" transform="translate(20.923 30.358)"/><circle cx="1.04" cy="1.04" r="1.04" transform="translate(4.957 30.358)"/><path d="M10.68 37.6V21.58H2.654m21.268-.001h-8.026" fill="none" stroke="#000" stroke-linecap="round" stroke-linejoin="round" stroke-width="1.5"/><path d="M36.319 29.787v5.564a5.434 5.434 0 005.434-5.434c0-.167-.007-.331-.022-.495-.305-3.374-5.412-3.023-5.412.365z" fill="#edeeef"/><path d="M36.319 35.351a5.434 5.434 0 005.434-5.434M14.191 45.549a5.5 5.5 0 005.5-5.5M0 52.964l38.88 9.556m-28.2-24.908l3.51.863" fill="none" stroke="#000" stroke-linecap="round" stroke-linejoin="round" stroke-width="1.5"/></g><path d="M169.082 35.229s-4.955-9.04-5.2-13.071l-1.344 5.637s-9.162-2.827-14.781-9.79v7.167s-10.809-2.28-13.589-9.487v6.718s-3.391-2.32-4.246-5.863" fill="none" stroke="#000" stroke-linecap="round" stroke-linejoin="round" stroke-width="1.5"/><path d="M132.764 28.511S113.009 7.554 139.8 1.758c19.2-4.154 29.283 6.108 29.283 6.108s6.65 3.176 9.338 8.551 3.793 19.178-6.777 29.44" fill="none" stroke="#000" stroke-linecap="round" stroke-linejoin="round" stroke-width="1.5"/><path d="M213.133 124.937v84.9L92.86 239.398v-94.555a72.831 72.831 0 0155.448-70.726 52.334 52.334 0 0164.825 50.821z" fill="#b9aede"/><path d="M132.764 189.042s-.067-69.925-39.9-70.372-25.973-46.092-25.973-46.092L1.6 87.366s-10.732 62.608 44.272 81.378c28.109 9.593 16.081 75.011 16.081 75.011l72.219-8.367v-9.642" fill="#edeeef"/><path d="M1.596 87.367s-10.732 62.608 44.272 81.378c28.109 9.593 16.081 75.011 16.081 75.011M202.83 93.735s37.782 49.482 37.293 107.63-90.4 52.773-124.6 6.353c0 0-22.477-15.637-19.057-19.057s18.394-.15 18.394-.15-2.757-7.912 1.4-5.958a74.977 74.977 0 019.72 6.039l54.592 3.626-12.447-50.955m-55.706 73.382s-14.8 241.5 26.994 355.839" fill="none" stroke="#000" stroke-linecap="round" stroke-linejoin="round" stroke-width="1.5"/><path d="M202.83 93.735s37.782 49.482 37.293 107.63-90.4 52.773-124.6 6.353c0 0-22.477-15.637-19.057-19.057s18.394-.15 18.394-.15-2.757-7.912 1.4-5.958a74.977 74.977 0 019.72 6.039l54.592 3.626-12.447-50.955" fill="none" stroke="#000" stroke-linecap="round" stroke-linejoin="round" stroke-width="1.5"/><path d="M212.15 240.321v41.178c-58.269-13.684-87.5-63.518-87.5-63.518 23.787 22.453 61.661 31.245 87.5 22.34z"/><path d="M73.132 231.05s-42.145 11.727-50.574-7.7 6.6-72.929 6.6-72.929-4.4-9.528-2.2-12.094 4.4 0 4.4 0 3.482-16.858 8.8-15.575 9.033 30.944 11.041 51.623" fill="none" stroke="#000" stroke-linecap="round" stroke-linejoin="round" stroke-width="1.5"/></svg>