<svg xmlns="http://www.w3.org/2000/svg" id="svg12" version="1.1" height="135.077" width="1366"><defs id="defs16"><clipPath id="clipPath26" clipPathUnits="userSpaceOnUse"><path d="M-5-6.8h1376v145.078H-5zM687.089.885C676.871.297 667.042 0 657.875-.002c-8.328 0-16.349.246-23.849.73-7.374.477-14.568 1.222-21.381 2.222a221.463 221.463 0 00-18.884 3.59 187 187 0 00-31.664 10.483c-18.859 8.185-33.999 18.516-48.646 28.51-7.659 5.227-15.58 10.632-23.846 15.583A188.581 188.581 0 01462.777 74.6a170.407 170.407 0 01-33.08 9.485c-6.34 1.165-13.038 2.055-19.907 2.648-7.2.621-14.837.936-22.7.936a374.547 374.547 0 01-39.311-2.236 444.833 444.833 0 00-46.8-2.609 324.13 324.13 0 00-71.465 7.594c-9.341 2.083-18.731 4.634-28.7 7.783-9.565 3.021-18.418 6.206-25.818 8.921a3208.295 3208.295 0 00-8.432 3.118l-.112.041c-14.954 5.551-29.079 10.791-44.1 14.7a202.3 202.3 0 01-23.288 4.686 183.191 183.191 0 01-25.485 1.755 212.627 212.627 0 01-33.953-2.827 121.3 121.3 0 01-19.756-4.939 140.94 140.94 0 01-18.9-8.057q-.485-.247-.97-.5v859.156h1366.005V49.517c-14.058 3.762-29.58 7.089-46.366 9.934-45.407 7.697-99.316 11.765-155.9 11.765-14.737 0-29.641-.281-44.3-.837-52.32-1.98-123.457-16.555-198.771-31.987-45.369-9.296-92.281-18.908-137.2-26.18-24.258-3.927-45.684-6.817-65.5-8.833-10.769-1.094-21.159-1.936-30.879-2.494z" class="powerclip" id="lpe_path-effect30"/></clipPath></defs><path transform="translate(0 1.8)" d="M0-1.8h1366v135.078H0z" clip-path="url(#clipPath26)" id="rect20" fill="#fff" stroke-width="1.077"/></svg>