<svg xmlns="http://www.w3.org/2000/svg" width="266.023" height="565.533"><g id="Grupo_1973" data-name="Grupo 1973" transform="translate(.75 .832)"><path id="Trazado_1787" data-name="Trazado 1787" d="M144.946 420.589s-50.209 99.758-9.9 160.209C171.437 635.383 182 646.214 182 646.214V660.7l39.23-47.431-33.968-94.3 23.921-76.478" transform="translate(-39.937 -126.332)" fill="#edeeef"/><path id="Trazado_1788" data-name="Trazado 1788" d="M181.295 486.936l-33.967-94.3 23.92-76.477" fill="none" stroke="#000" stroke-linecap="round" stroke-linejoin="round" stroke-width="1.5"/><path id="Trazado_1789" data-name="Trazado 1789" d="M112.85 426.118v266.568h-69.7l7.321-13.086S34.825 549.413 30.379 442.24" transform="translate(130.824 -127.986)" fill="#edeeef"/><path id="Trazado_1790" data-name="Trazado 1790" d="M181.295 551.619s-15.646-130.192-20.092-237.365" fill="none" stroke="#000" stroke-linecap="round" stroke-linejoin="round" stroke-width="1.5"/><path id="Trazado_1791" data-name="Trazado 1791" d="M62.293 296.908L177.3 325.175v106.684l-159.011-5.866z" transform="translate(68.626 -90.336)" fill="#f2bc08"/><g id="Grupo_963" data-name="Grupo 963" transform="translate(151.096 17.309)"><path id="Trazado_1792" data-name="Trazado 1792" d="M109.421 41.632v12.953a21.758 21.758 0 0016.565 21.129l20.614 5.067V30.135l-17.14-4.213a16.177 16.177 0 00-20.038 15.71z" transform="translate(-109.421 -25.447)" fill="#edeeef"/><path id="Trazado_1793" data-name="Trazado 1793" d="M0 29.139a21.758 21.758 0 0016.565 21.129l20.614 5.066" fill="none" stroke="#000" stroke-linecap="round" stroke-linejoin="round" stroke-width="1.5"/><circle id="Elipse_167" data-name="Elipse 167" cx=".994" cy=".994" transform="translate(20.008 24.58)" r=".994"/><circle id="Elipse_168" data-name="Elipse 168" cx=".994" cy=".994" transform="translate(4.74 24.58)" r=".994"/><path id="Trazado_1794" data-name="Trazado 1794" d="M10.213 31.504V16.185H2.538" fill="none" stroke="#000" stroke-linecap="round" stroke-linejoin="round" stroke-width="1.5"/><path id="Línea_260" data-name="Línea 260" fill="none" stroke="#000" stroke-linecap="round" stroke-linejoin="round" stroke-width="1.5" d="M22.875 16.185H15.2"/><g id="Grupo_962" data-name="Grupo 962" transform="translate(34.73 21.428)"><path id="Trazado_1795" data-name="Trazado 1795" d="M105.5 58.626v5.32a5.2 5.2 0 005.2-5.2q0-.239-.021-.473c-.295-3.222-5.179-2.887-5.179.353z" transform="translate(-105.501 -56.02)" fill="#edeeef"/><path id="Trazado_1796" data-name="Trazado 1796" d="M-.001 7.926a5.2 5.2 0 005.2-5.2" fill="none" stroke="#000" stroke-linecap="round" stroke-linejoin="round" stroke-width="1.5"/></g><path id="Trazado_1797" data-name="Trazado 1797" d="M14.409 35.294a3.44 3.44 0 004.866 0" fill="none" stroke="#172328" stroke-linecap="round" stroke-linejoin="round" stroke-width="1.5"/><path id="Línea_261" data-name="Línea 261" fill="none" stroke="#000" stroke-linecap="round" stroke-linejoin="round" stroke-width="1.5" d="M10.213 31.517l3.357.825"/></g><path id="Trazado_1798" data-name="Trazado 1798" d="M185.826 38.738s-9.2-6.705-10.372-12.78c0 0-18.456 7.944-29.2.935" fill="none" stroke="#000" stroke-linecap="round" stroke-linejoin="round" stroke-width="1.5"/><path id="Trazado_1799" data-name="Trazado 1799" d="M188.424 54.811s18.1-5.607 17.928-20.15-20.525-20.676-20.525-20.676-20.477-25.758-36.772-7.36-1.577 46.267-7.885 52.925 9.5 14.293 23.5 7.056" fill="none" stroke="#000" stroke-linecap="round" stroke-linejoin="round" stroke-width="1.5"/><path id="Trazado_1800" data-name="Trazado 1800" d="M27.161 159.708v81.185l115.01 28.267v-90.418a69.644 69.644 0 00-53.022-67.632 50.043 50.043 0 00-61.987 48.6z" transform="translate(103.758 -33.321)" fill="#f2bc08"/><path id="Trazado_1801" data-name="Trazado 1801" d="M240.501 118.455s38.45 54.221 17.891 111.693-107.296 36.448-107.296 36.448l-7.649-12.149-12.528-3.272v-5.14l78.878-30.839-21.523-79.433" fill="none" stroke="#000" stroke-linecap="round" stroke-linejoin="round" stroke-width="1.5"/><path id="Trazado_1802" data-name="Trazado 1802" d="M98.994 209.535l18.658 68.865-38.939 15.221c37.895-17.821 20.307-83.988 20.281-84.086z" transform="translate(92.145 -63.202)"/><path id="Trazado_1803" data-name="Trazado 1803" d="M143.456 93.251l-50.472 45.783S36.914 96.997 22.428 93.25 0 93.25 0 93.25l1.869 7.936 10.279.467s.935 15.887 11.682 18.69c0 0 43.163 104.2 107.089 66.35" fill="none" stroke="#000" stroke-linecap="round" stroke-linejoin="round" stroke-width="1.5"/></g></svg>