<svg xmlns="http://www.w3.org/2000/svg" width="1365.999" height="161.829" version="1.1" id="svg3"><path id="Intersección_1" data-name="Intersección 1" d="M687.087.926c9.72.581 20.109 1.455 30.88 2.6 19.819 2.1 41.244 5.109 65.5 9.2 44.909 7.573 91.82 17.582 137.186 27.263h.013c75.315 16.071 146.452 31.252 198.772 33.313 14.657.579 29.561.871 44.294.871 56.585 0 110.494-4.236 155.9-12.253 16.786-2.963 32.309-6.428 46.367-10.346v110.255H.01L0 119.871c.323.176.647.35.97.523a137.95 137.95 0 0018.9 8.391 117.276 117.276 0 0019.756 5.143 204.317 204.317 0 0033.953 2.944c8.528.01 17.045-.602 25.484-1.827a195.342 195.342 0 0023.289-4.881c15.023-4.072 29.148-9.53 44.1-15.309l.133-.051c2.742-1.059 5.577-2.155 8.406-3.236 7.4-2.828 16.255-6.144 25.817-9.29 9.97-3.281 19.359-5.932 28.7-8.105a311.677 311.677 0 0171.464-7.908 427.23 427.23 0 0146.8 2.716 359.88 359.88 0 0039.309 2.328c7.864 0 15.5-.328 22.7-.975 6.868-.617 13.566-1.545 19.907-2.758a165.325 165.325 0 0033.08-9.878 185.9 185.9 0 0026.828-14.044c8.266-5.157 16.187-10.786 23.846-16.229 14.647-10.408 29.787-21.168 48.647-29.693a181.812 181.812 0 0131.664-10.917c6.044-1.492 12.4-2.75 18.884-3.74 6.812-1.04 14.006-1.818 21.381-2.314 7.5-.505 15.52-.761 23.847-.761 9.172 0 19 .31 29.222.926z" fill="#cbe9ff"/></svg>