<svg xmlns="http://www.w3.org/2000/svg" width="111.309" height="149.789"><path d="M101.535 22.027c-20.952 0-38.883-8.959-46.256-21.65-7.373 12.691-25.3 21.65-46.256 21.65a71.876 71.876 0 01-9.024-.566v69.274a45.873 45.873 0 0022.937 39.727l32.343 18.673 32.343-18.673a45.873 45.873 0 0022.937-39.727V21.461a71.888 71.888 0 01-9.024.566z" fill="#00a3c9"/><path d="M87.623 130.467a45.873 45.873 0 0022.937-39.731V21.462a71.877 71.877 0 01-9.024.566c-20.953 0-38.883-8.959-46.256-21.65v148.758z" fill="#00819f"/><path d="M55.28 149.136l32.343-18.673a45.873 45.873 0 0022.937-39.727V21.462a71.877 71.877 0 01-9.024.566c-20.953 0-38.883-8.959-46.256-21.65" fill="none" stroke="#000" stroke-miterlimit="10" stroke-width="1.5"/><g fill="#393768"><path d="M32.567 77.849l3.31-3.31 16.89 16.889-3.31 3.31z"/><path d="M82.796 54.778l3.31 3.31-36.65 36.65-3.31-3.31z"/></g></svg>