<svg xmlns="http://www.w3.org/2000/svg" width="319.652" height="564"><path d="M86.083 534.492c11.73-122.631 84.56-304.074 84.56-304.074l63.66-39.294-7.037 98.1-9.487 93.643L137.268 564l-73.579-23.11z" fill="#e2e2e2"/><path d="M189.614 206.411s-14.351 234.242 26.184 345.149L207.331 564h72.1s7.874-297.947 7.874-362.255z" fill="#edeeef"/><g transform="translate(215.209 4.238)"><path d="M-.005 20.931v30.445l37.712 9.269V9.269L-.005 0z" fill="#edeeef"/><circle cx="1.008" cy="1.008" transform="translate(20.295 29.447)" r="1.008"/><circle cx="1.008" cy="1.008" transform="translate(4.808 29.447)" r="1.008"/><path d="M10.359 36.466V20.931H2.574m20.629 0h-7.785" fill="none" stroke="#000" stroke-linecap="round" stroke-linejoin="round" stroke-width="1.5"/><path d="M35.228 28.892v5.4a5.27 5.27 0 005.271-5.27q0-.243-.021-.48c-.296-3.277-5.25-2.939-5.25.35z" fill="#edeeef"/><path d="M35.228 34.288a5.27 5.27 0 005.271-5.27" fill="none" stroke="#000" stroke-linecap="round" stroke-linejoin="round" stroke-width="1.5"/><path d="M13.765 42.3a5.334 5.334 0 005.334-5.334" fill="none" stroke="#172328" stroke-linecap="round" stroke-linejoin="round" stroke-width="1.5"/><path fill="none" stroke="#000" stroke-linecap="round" stroke-linejoin="round" stroke-width="1.5" d="M0 51.373l37.712 9.269M10.359 36.483l3.405.837"/></g><path d="M213.928 11.955s9.392 6.991 28.113 4.858c0 0 0 12.344 6.636 16.125" fill="none" stroke="#000" stroke-linecap="round" stroke-linejoin="round" stroke-width="1.5"/><path d="M213.928 27.833s-15.292-19.91 6.825-25.475 32.308 5.332 32.308 5.332 20.923 3.436-1.269 41.708" fill="none" stroke="#000" stroke-linecap="round" stroke-linejoin="round" stroke-width="1.5"/><path d="M287.3 119.394v82.348l-116.657 28.675v-91.716a70.644 70.644 0 0153.783-68.6 50.762 50.762 0 0162.874 49.292z" fill="#393768"/><path d="M189.614 206.407s-14.352 234.246 26.183 345.153m-7.02-475.584s-33.377 14.183-82.432 83.775m44.302 49.253s-56.739 19.906-72.38 5.214-20.381-54.467-20.381-54.467" fill="none" stroke="#000" stroke-linecap="round" stroke-linejoin="round" stroke-width="1.5"/><path d="M77.883 153.471s-3.436-34.164-3.08-44.117c0 0-5.875 3.2-11.113 1.422 0 0-3.461 5.688-5.949 5.332s-1.422-12.086 8.176-24.172 52.352-12.009 64.922 61.535" fill="none" stroke="#000" stroke-linecap="round" stroke-linejoin="round" stroke-width="1.5"/><path d="M172.68 66.594c-35.634 0-66.128-15.237-78.666-36.82-12.539 21.583-43.033 36.82-78.667 36.82a122.236 122.236 0 01-15.346-.962v117.82a78.016 78.016 0 0039.008 67.564l55.005 31.758 55-31.758a78.015 78.015 0 0039.014-67.564V65.632a122.254 122.254 0 01-15.348.962z" fill="#00a3c9"/><path d="M149.018 251.015a78.015 78.015 0 0039.011-67.563V65.632a122.241 122.241 0 01-15.347.962c-35.634 0-66.128-15.237-78.667-36.821v253z" fill="#00819f"/><path d="M94.013 282.773l55.005-31.758a78.015 78.015 0 0039.011-67.563V65.632a122.241 122.241 0 01-15.347.962c-35.634 0-66.128-15.237-78.667-36.821" fill="none" stroke="#000" stroke-miterlimit="10" stroke-width="1.5"/><g fill="#393768"><path d="M55.386 161.53l5.63-5.63 28.723 28.723-5.63 5.63z"/><path d="M140.81 122.293l5.63 5.63-62.33 62.33-5.63-5.63z"/></g><path d="M275.056 86.317s63.558 84.325 37.437 134.062-152.141-25.119-153.563-38.391 28.217-6.161 28.217-6.161-3.571-24.172 11.6-.474l56.965 6.162-18.487-44.553" fill="none" stroke="#000" stroke-linecap="round" stroke-linejoin="round" stroke-width="1.5"/><path d="M249.508 166.57l6.2 14.945-42.7-4.619c9.922-5.203 22.504-8.872 36.5-10.326zm37.442 70.143c-.1 6.363-.212 13.226-.341 20.509-30.095-.247-69.228-16.522-86.891-33.951h-.008c-.225-.222-.44-.444-.658-.667l-.175-.178q-.446-.459-.869-.918l-.155-.166q-.428-.467-.833-.934c-.043-.05-.089-.1-.132-.151q-.41-.475-.794-.95l-.111-.134q-.391-.486-.758-.973l-.084-.11q-.373-.5-.719-.995l-.062-.087q-.351-.508-.673-1.014l-.044-.068q-.327-.517-.624-1.033l-.026-.045q-.3-.525-.569-1.048l-.015-.028q-.272-.532-.51-1.061v-.01a17.033 17.033 0 01-1.521-5.646c28.057 16.356 68.88 33.395 96.572 29.658z"/></svg>