<svg xmlns="http://www.w3.org/2000/svg" width="314.057" height="584.226"><g id="Grupo_1921" data-name="Grupo 1921" transform="translate(.998 .788)"><path id="Trazado_1628" data-name="Trazado 1628" d="M32.8 313.253L83 282.144l49.743 149.227 105.012 54.164-15.475 102.8-13.264-27.635C-112.651 478.9 32.8 313.253 32.8 313.253z" transform="translate(75.303 -75.605)" fill="#f2bc08"/><path id="Trazado_1629" data-name="Trazado 1629" d="M142.081 411.149l18.052 54.151 40.656 20.969a262.114 262.114 0 016.885 60.829 275.407 275.407 0 01-2.707 38.839c-59.07-17.749-99.679-38.614-126.983-60.494 4.962-64.57 31.744-113.956 64.097-114.294z" transform="translate(47.914 -109.539)"/><path id="Trazado_1630" data-name="Trazado 1630" d="M105.011 279.461l86.29-5.911 15.69 6.39 7.374 376.843h-80.148l8.474-15.186z" transform="translate(21.304 -73.345)" fill="#f2bc08"/><g id="Grupo_922" data-name="Grupo 922" transform="translate(135.977 7.87)"><path id="Trazado_1631" data-name="Trazado 1631" d="M148.522 29.583V43.2a22.878 22.878 0 0017.417 22.22l21.675 5.327V17.494l-18.022-4.43a17.01 17.01 0 00-21.07 16.518z" transform="translate(-148.522 -12.565)" fill="#edeeef"/><path id="Trazado_1632" data-name="Trazado 1632" d="M0 30.638a22.878 22.878 0 0017.417 22.217l21.675 5.327" fill="none" stroke="#000" stroke-linecap="round" stroke-linejoin="round" stroke-width="1.5"/><circle id="Elipse_186" data-name="Elipse 186" cx="1.045" cy="1.045" transform="translate(21.038 25.845)" r="1.045"/><circle id="Elipse_187" data-name="Elipse 187" cx="1.045" cy="1.045" transform="translate(4.984 25.845)" r="1.045"/><path id="Trazado_1633" data-name="Trazado 1633" d="M10.738 33.126V17.018h-8.07" fill="none" stroke="#000" stroke-linecap="round" stroke-linejoin="round" stroke-width="1.5"/><path id="Línea_261" data-name="Línea 261" fill="none" stroke="#000" stroke-linecap="round" stroke-linejoin="round" stroke-width="1.5" d="M24.052 17.018h-8.07"/><g id="Grupo_921" data-name="Grupo 921" transform="translate(36.518 22.531)"><path id="Trazado_1634" data-name="Trazado 1634" d="M198.074 45.878v5.594a5.464 5.464 0 005.463-5.464c0-.167-.007-.334-.022-.5-.307-3.389-5.441-3.036-5.441.37z" transform="translate(-198.074 -43.138)" fill="#edeeef"/><path id="Trazado_1635" data-name="Trazado 1635" d="M0 8.338a5.464 5.464 0 005.463-5.464" fill="none" stroke="#000" stroke-linecap="round" stroke-linejoin="round" stroke-width="1.5"/></g><path id="Trazado_1636" data-name="Trazado 1636" d="M15.151 38.008a3.618 3.618 0 005.116 0" fill="none" stroke="#172328" stroke-linecap="round" stroke-linejoin="round" stroke-width="1.5"/><path id="Línea_262" data-name="Línea 262" fill="none" stroke="#000" stroke-linecap="round" stroke-linejoin="round" stroke-width="1.5" d="M10.739 33.139l3.529.867"/></g><path id="Trazado_1637" data-name="Trazado 1637" d="M234.941 149.4v85.364l-120.93 29.722v-95.069A73.229 73.229 0 01169.762 98.3a52.62 52.62 0 0165.179 51.1z" transform="translate(-5.904 -26.841)" fill="#edeeef"/><path id="Línea_263" data-name="Línea 263" fill="none" stroke="#000" stroke-linecap="round" stroke-linejoin="round" stroke-width="1.5" d="M163.996 568.252l-37.681-362.136"/><path id="Trazado_1638" data-name="Trazado 1638" d="M135.15 25.906s13.122-4.79 18.537-14.371c0 0 2.893 18.485 19.353 19.928" fill="none" stroke="#000" stroke-linecap="round" stroke-linejoin="round" stroke-width="1.5"/><path id="Trazado_1639" data-name="Trazado 1639" d="M135.977 33.272s-10.408-11.6-3.591-23.211 27.807-12.036 42.84-7c20.354 6.817 25.75 34.846-.157 45.507" fill="none" stroke="#000" stroke-linecap="round" stroke-linejoin="round" stroke-width="1.5"/><path id="Trazado_1640" data-name="Trazado 1640" d="M194.476 21.499a19.555 19.555 0 010 9.964" fill="none" stroke="#00a3c9" stroke-linecap="round" stroke-linejoin="round" stroke-width="1.5"/><path id="Trazado_1641" data-name="Trazado 1641" d="M196.318 21.499s5.159-9.535 14.371-3.761.737 22.624-14.371 12.663" fill="none" stroke="#000" stroke-linecap="round" stroke-linejoin="round" stroke-width="1.5"/><path id="Trazado_1642" data-name="Trazado 1642" d="M204.431 78.02s59.493 37.979 51.156 115.36-103.16 51.833-153.273-13.02c0 0-30.931-9.826-27.011-12.774s32.8-2.948 32.8-2.948-4.524-8.352 0-8.352 9.929 7.37 9.929 7.37l79.539 17.687-13.517-31.935" fill="none" stroke="#000" stroke-linecap="round" stroke-linejoin="round" stroke-width="1.5"/><path id="Trazado_1643" data-name="Trazado 1643" d="M108.107 164.639H40.896L-.004 78.02" fill="none" stroke="#f2bc08" stroke-linecap="round" stroke-linejoin="round" stroke-width="1.5"/><path id="Trazado_1644" data-name="Trazado 1644" d="M129.403 90.942s-34.7 36.112-40.6 75.907" fill="none" stroke="#000" stroke-linecap="round" stroke-linejoin="round" stroke-width="1.5"/><path id="Trazado_1645" data-name="Trazado 1645" d="M109.106 212.369S34.05 249.99 59.093 164.638" fill="none" stroke="#000" stroke-linecap="round" stroke-linejoin="round" stroke-width="1.5"/><path id="Trazado_1646" data-name="Trazado 1646" d="M91.745 153.782s-6.536-39.78-18.7-32.453-21.526 11.978-18.991 13.766 8.975.357 8.975.357-4.651 8.586 3.22 10.732l-4.9 11.806" fill="none" stroke="#000" stroke-linecap="round" stroke-linejoin="round" stroke-width="1.5"/><g id="Grupo_1982" data-name="Grupo 1982" transform="translate(12)" fill="none" stroke="#00819f" stroke-linecap="round" stroke-width="1.5"><path id="Trazado_1752" data-name="Trazado 1752" d="M8.97 78.02l6.344-9.139" transform="rotate(11 12.14 73.45)"/><path id="Trazado_1753" data-name="Trazado 1753" d="M0 73.45V60.539" transform="translate(0 -3)"/><path id="Trazado_1754" data-name="Trazado 1754" d="M-2.506 84.246l-12.385-3.98" transform="rotate(-13 31.63 -37.623)"/></g></g></svg>