<svg xmlns="http://www.w3.org/2000/svg" width="127.189" height="30.401"><g id="Grupo_739" data-name="Grupo 739" transform="translate(-58.375 -594.954)"><path id="Trazado_1531" data-name="Trazado 1531" d="M77.787 624.788h-5.835v-2.264h-.072a5.9 5.9 0 01-5.15 2.831c-5.87 0-8.355-5.285-8.355-10.8 0-5.1 2.593-9.928 7.887-9.928a6.161 6.161 0 015.33 2.68h.072v-12.353h6.122zm-13.289-10c0 2.68.936 5.663 3.746 5.663 2.988 0 3.636-2.983 3.636-5.474 0-2.831-.971-5.436-3.636-5.436-2.81-.003-3.744 2.753-3.744 5.244z" fill="#999"/><path id="Trazado_1532" data-name="Trazado 1532" d="M83.491 602.2c5.8 0 9.867 4.493 9.867 10.381s-4.069 10.342-9.867 10.342-9.832-4.454-9.832-10.342 4.033-10.381 9.832-10.381zm0 15.817c2.844 0 3.744-2.944 3.744-5.436s-.9-5.474-3.744-5.474-3.71 2.983-3.71 5.474.865 5.434 3.71 5.434z" transform="translate(5.134 2.433)" fill="#999"/><path id="Trazado_1533" data-name="Trazado 1533" d="M89.1 602.764h5.943v2.68h.071a6.979 6.979 0 015.871-3.246c6.231 0 6.734 4.757 6.734 7.588v12.569H101.6v-9.474c0-2.68.289-5.4-3.061-5.4-2.306 0-3.314 2.039-3.314 4.191v10.682H89.1z" transform="translate(10.322 2.433)" fill="#999"/><path id="Trazado_1534" data-name="Trazado 1534" d="M129.731 614.126c.107 2.681 1.584 4.454 4.177 4.454a3.631 3.631 0 003.493-2.151h5.726c-1.115 4.53-5.114 6.492-9.291 6.492-6.086 0-10.229-3.85-10.229-10.419a10.039 10.039 0 0110.085-10.302c6.7 0 10.049 5.285 9.76 11.928zm7.6-3.586c-.108-2.189-1.584-4-3.638-4-2.161 0-3.6 1.623-3.961 4z" transform="translate(21.911 2.433)" fill="#999"/><path id="Trazado_1535" data-name="Trazado 1535" d="M139.053 594.954h6.122v12.4h.072a6.1 6.1 0 015.33-2.718c5.294 0 7.887 4.832 7.887 9.928 0 5.51-2.485 10.8-8.355 10.8a5.9 5.9 0 01-5.151-2.831h-.072v2.264h-5.834zm5.906 19.831c0 3.435.936 5.663 3.71 5.663 2.737 0 3.674-2.983 3.674-5.663 0-2.491-.936-5.247-3.638-5.247-1.657 0-3.746 1.209-3.746 5.247z" transform="translate(27.099)" fill="#999"/><path id="Trazado_1536" data-name="Trazado 1536" d="M111.9 602.622h4.282l2.665 12.683h.072l3.133-12.683h6.194l-5.834 19.591h-6.194l-2.423-10.813z" transform="translate(17.978 2.576)" fill="#999"/><path id="Trazado_1537" data-name="Trazado 1537" d="M116.04 604.5l-.359 17.712-2.187-9.774 2.128-9.817h.022z" transform="translate(18.514 2.576)" fill="#d9d9d9" style="mix-blend-mode:multiply;isolation:isolate"/><path id="Trazado_1538" data-name="Trazado 1538" d="M119.2 602.622h-4.282l-2.665 12.683h-.072l-3.133-12.683h-6.194l5.834 19.591h6.194L117.3 611.4z" transform="translate(14.939 2.576)" fill="#999"/></g></svg>