<svg xmlns="http://www.w3.org/2000/svg" width="141.781" height="20.632"><path d="M6.444 4.4a5.234 5.234 0 015.579 5.546c0 .068 0 .154-.01.247a.82.82 0 01-.846.735H2.546c.127 2.6 2.14 3.908 4.432 3.908a6.331 6.331 0 003.4-1.074.505.505 0 01.7.146l.544.887a.419.419 0 01-.124.568 8.245 8.245 0 01-4.672 1.439c-4.05 0-6.827-2.692-6.827-6.2C0 6.834 2.776 4.4 6.444 4.4zm2.78 4.821a.25.25 0 00.259-.267 2.9 2.9 0 00-3.09-2.752 3.609 3.609 0 00-3.77 3.019zM14.32 4.68h1.256a.547.547 0 01.57.523v1.045a7.639 7.639 0 01-.051.866h.051a5.283 5.283 0 014.84-2.714c3.031 0 4.432 1.52 4.432 4.54v7.1a.5.5 0 01-.521.479h-1.428a.5.5 0 01-.522-.479V9.454c0-1.662-.382-2.972-2.445-2.972a4.175 4.175 0 00-4.077 2.9 5.209 5.209 0 00-.2 1.592v5.067a.5.5 0 01-.521.479h-1.428a.5.5 0 01-.522-.479V5.203a.547.547 0 01.566-.523zm12.459 0h1.59a.483.483 0 01.454.293l3.019 7.711a16.462 16.462 0 01.434 1.614h.051c.025 0 .2-.96.458-1.614l3.019-7.711a.481.481 0 01.454-.293h1.567a.449.449 0 01.453.6l-4.307 10.702a.9.9 0 01-.843.539h-1.6a.9.9 0 01-.843-.537L26.331 5.277a.45.45 0 01.448-.597zm12.829 0h1.966a.244.244 0 01.253.233v11.376a.244.244 0 01-.253.233h-1.966a.244.244 0 01-.253-.233V4.917a.244.244 0 01.253-.237zM41.514 0h1.995a.232.232 0 01.2.372l-2.063 2.507a.262.262 0 01-.2.092h-1.5a.233.233 0 01-.219-.348L41.296.116A.258.258 0 0141.514 0zm9.637 9.127h.56v-.21c0-1.942-1.2-2.6-2.828-2.6a6.765 6.765 0 00-3.271.945.388.388 0 01-.52-.122l-.657-1.071a.326.326 0 01.12-.453 8.86 8.86 0 014.654-1.217 4.858 4.858 0 014.973 4.652v7.084a.4.4 0 01-.42.385h-1.453a.4.4 0 01-.42-.385v-.738a8.207 8.207 0 01.051-.936h-.051a4.448 4.448 0 01-4.127 2.341c-2.217 0-4.383-1.241-4.383-3.6.001-3.911 5.606-4.075 7.772-4.075zm-2.853 5.85a3.693 3.693 0 003.439-3.768v-.374h-.638c-1.859 0-5.222.117-5.222 2.247 0 .959.815 1.895 2.42 1.895zM56.777.569h1.81a.317.317 0 01.33.3v12.025a1.519 1.519 0 001.489 1.656.341.341 0 01.321.329v1.344a.411.411 0 01-.426.392h-.39c-1.4 0-3.464-.351-3.464-3.323V.872a.317.317 0 01.33-.303zM68.088 4.4c3.848 0 6.956 2.6 6.956 6.177 0 3.6-3.108 6.226-6.956 6.226s-6.954-2.622-6.954-6.226c0-3.58 3.108-6.177 6.954-6.177zm0 10.436a4.24 4.24 0 10-4.432-4.259 4.27 4.27 0 004.432 4.259zm8.314-.256a.3.3 0 01.4-.027 5.913 5.913 0 003.743 1.291c1.555 0 2.93-.749 2.93-2.2 0-2.972-7.005-2.129-7.005-5.943 0-2.083 1.911-3.16 4.075-3.16a5.61 5.61 0 013.587 1.1.242.242 0 01.04.345l-.306.381a.3.3 0 01-.4.048 4.862 4.862 0 00-2.994-.913c-1.453 0-2.878.609-2.878 2.129 0 3.043 7.005 2.13 7.005 6.014 0 1.872-1.732 3.16-4.076 3.16a6.662 6.662 0 01-4.429-1.512.241.241 0 01-.019-.351zM87.036.141h.669a.29.29 0 01.3.277v1.154a.29.29 0 01-.3.277h-.669a.291.291 0 01-.3-.277V.419a.291.291 0 01.3-.278zm.1 4.68h.467a.291.291 0 01.3.277v11.147a.291.291 0 01-.3.277h-.467a.291.291 0 01-.3-.277V5.098a.291.291 0 01.302-.279zm4.254 0h.518a.267.267 0 01.276.254V6.88a4.521 4.521 0 01-.1.96h.052a5.661 5.661 0 014.891-3.3c2.547 0 3.745 1.1 4.025 3.183h.051a5.529 5.529 0 014.84-3.183c3.287 0 4.255 1.779 4.255 4.564v7.128a.3.3 0 01-.315.29h-.441a.3.3 0 01-.315-.29V9.455c0-2.2-.485-4-3.184-4a5.007 5.007 0 00-4.484 3.556 5.656 5.656 0 00-.254 1.8v5.42a.3.3 0 01-.315.29h-.439a.3.3 0 01-.316-.29V9.455c0-2.013-.305-4-3.107-4a5.114 5.114 0 00-4.637 3.768 5.356 5.356 0 00-.2 1.591v5.42a.3.3 0 01-.316.29h-.438a.3.3 0 01-.316-.29V5.075a.267.267 0 01.269-.254zm22.171 0h.4a.323.323 0 01.336.309v1.1a5.512 5.512 0 01-.076.936h.051a4.754 4.754 0 014.585-2.621c3.413 0 5.5 2.5 5.5 6.132 0 3.72-2.37 6.132-5.656 6.132a4.835 4.835 0 01-4.457-2.645h-.052a4.8 4.8 0 01.1 1.03v5.2a.256.256 0 01-.267.244h-.537a.256.256 0 01-.267-.244V5.13a.323.323 0 01.34-.309zm5.141 11.022c2.5 0 4.534-1.9 4.534-5.172 0-3.159-1.833-5.172-4.432-5.172-2.344 0-4.534 1.521-4.534 5.195 0 2.598 1.584 5.149 4.432 5.149zM126.897.71h.421a.312.312 0 01.325.3v12.843c0 1.693 1.146 1.842 1.65 1.825a.22.22 0 01.234.21v.5a.215.215 0 01-.2.208 2.474 2.474 0 01-2.757-2.441V1.007a.312.312 0 01.327-.297zm9.687 3.83c3.464 0 5.2 2.5 5.2 5.336v.008a.663.663 0 01-.69.624h-9.576a5.158 5.158 0 005.451 5.336 6.079 6.079 0 003.756-1.308.243.243 0 01.344.046l.326.454a.2.2 0 01-.042.277 7.32 7.32 0 01-4.384 1.491c-3.592 0-6.572-2.387-6.572-6.108a5.929 5.929 0 016.187-6.156zm3.485 5.055a.518.518 0 00.543-.554 3.869 3.869 0 00-4.053-3.588 4.83 4.83 0 00-4.968 4.142z"/></svg>