<svg xmlns="http://www.w3.org/2000/svg" width="27.46" height="25.218"><g fill="#1d1d1b"><path d="M7.732 2.667a10.5 10.5 0 00-4.05 9.263.561.561 0 00.7.457l1.327-.3a.52.52 0 00.427-.532 8.309 8.309 0 013.125-7.092 10.124 10.124 0 0112.52-.05 8.2 8.2 0 01.446 12.651 9.908 9.908 0 01-7.362 2.519.554.554 0 00-.578.392l-.323 1.219a.526.526 0 00.5.639 12.535 12.535 0 009.508-3.15 10.368 10.368 0 00-.623-16.018 12.779 12.779 0 00-15.617.002z"/><path d="M17.335 12.581a2.214 2.214 0 00-.385-3.578 2.712 2.712 0 00-2.754-.03 2.409 2.409 0 00-.921.947.3.3 0 00.36.4l.2-.045a6.644 6.644 0 001.167-.411 1.378 1.378 0 011.457.236 1.116 1.116 0 01.257 1.338 5.548 5.548 0 00-.448 1.074l-.048.184a.3.3 0 00.429.332 2.489 2.489 0 00.686-.447z"/><path d="M20.215 15.225a5.74 5.74 0 00-.279-8.819 7.087 7.087 0 00-8.821.034 5.84 5.84 0 00-2.156 4.233.553.553 0 00.7.534l.738-.165a.528.528 0 00.426-.458 4.223 4.223 0 011.592-2.918 5.1 5.1 0 016.324.043 4.118 4.118 0 01.165 6.308 4.917 4.917 0 01-2.975 1.262.545.545 0 00-.5.39l-.179.678a.534.534 0 00.581.639 6.855 6.855 0 004.384-1.761z"/></g><path d="M15.859 10.992l-4.61 14.033a.3.3 0 01-.487.113l-3.6-3.309a.651.651 0 00-.531-.157l-3.093.6a.118.118 0 01-.111-.2l10.074-9.253c.05-.049-.018-.123-.077-.084l-9.3 5.993a.311.311 0 01-.374-.029L.086 15.334a.26.26 0 01.121-.448l15.246-4.263a.312.312 0 01.406.369z" fill="#00a3c9"/></svg>