<svg xmlns="http://www.w3.org/2000/svg" width="364.773" height="564"><g id="Grupo_2097" data-name="Grupo 2097" transform="translate(-870 -201.227)"><g id="Grupo_344" data-name="Grupo 344" transform="translate(472.763 72.574)"><circle id="Elipse_115" data-name="Elipse 115" cx="33.288" cy="33.288" r="33.288" transform="translate(406.106 195.829)" fill="#edeeef"/><circle id="Elipse_116" data-name="Elipse 116" cx="33.288" cy="33.288" r="33.288" transform="translate(406.106 195.829)" fill="none" stroke="#000" stroke-miterlimit="10" stroke-width="1.5"/><g id="Grupo_345" data-name="Grupo 345" fill="#e6e7e9"><path id="Rectángulo_264" data-name="Rectángulo 264" transform="translate(427.293 187.426)" d="M0 0h24.202v83.383H0z"/><path id="Rectángulo_265" data-name="Rectángulo 265" transform="rotate(-60 388.063 -234.641)" d="M0 0h24.202v83.383H0z"/><path id="Rectángulo_266" data-name="Rectángulo 266" transform="rotate(-120 279.853 12.056)" d="M0 0h24.202v83.383H0z"/></g><circle id="Elipse_117" data-name="Elipse 117" cx="8.322" cy="8.322" r="8.322" transform="translate(431.072 220.796)" fill="#00a3c9"/><path id="Trazado_994" data-name="Trazado 994" d="M431.072 229.118a8.322 8.322 0 018.322-8.322" fill="none" stroke="#000" stroke-miterlimit="10" stroke-width="1.5"/></g><g id="Grupo_2080" data-name="Grupo 2080" transform="translate(943 202)"><path id="Trazado_1866" data-name="Trazado 1866" d="M141.98 611.863c11.73-122.631 84.56-304.074 84.56-304.074l63.66-39.294-7.037 98.1-9.487 93.643-80.511 181.133-73.579-23.11z" transform="translate(-83.777 -78.144)" fill="#e2e2e2"/><path id="Trazado_1867" data-name="Trazado 1867" d="M47.509 288.1S33.158 522.342 73.693 633.249l-8.467 12.44h72.1s7.874-297.947 7.874-362.255z" transform="translate(114.225 -82.462)" fill="#edeeef"/><g id="Grupo_2062" data-name="Grupo 2062" transform="translate(187.329 3.465)"><path id="Trazado_1868" data-name="Trazado 1868" d="M93.4 26.555V57l37.712 9.269V14.893L93.4 5.624z" transform="translate(-93.405 -5.624)" fill="#edeeef"/><circle id="Elipse_218" data-name="Elipse 218" cx="1.008" cy="1.008" transform="translate(20.295 29.447)" r="1.008"/><circle id="Elipse_219" data-name="Elipse 219" cx="1.008" cy="1.008" transform="translate(4.808 29.447)" r="1.008"/><path id="Trazado_1869" data-name="Trazado 1869" d="M10.359 36.466V20.931H2.574" fill="none" stroke="#000" stroke-linecap="round" stroke-linejoin="round" stroke-width="1.5"/><path id="Línea_274" data-name="Línea 274" fill="none" stroke="#000" stroke-linecap="round" stroke-linejoin="round" stroke-width="1.5" d="M23.203 20.931h-7.785"/><g id="Grupo_2061" data-name="Grupo 2061" transform="translate(35.228 26.249)"><path id="Trazado_1870" data-name="Trazado 1870" d="M89.485 45.189v5.4a5.27 5.27 0 005.271-5.27q0-.243-.021-.48c-.296-3.277-5.25-2.939-5.25.35z" transform="translate(-89.485 -42.546)" fill="#edeeef"/><path id="Trazado_1871" data-name="Trazado 1871" d="M0 8.039a5.27 5.27 0 005.271-5.27" fill="none" stroke="#000" stroke-linecap="round" stroke-linejoin="round" stroke-width="1.5"/></g><path id="Trazado_1872" data-name="Trazado 1872" d="M13.765 42.3a5.334 5.334 0 005.334-5.334" fill="none" stroke="#172328" stroke-linecap="round" stroke-linejoin="round" stroke-width="1.5"/><path id="Línea_275" data-name="Línea 275" fill="none" stroke="#000" stroke-linecap="round" stroke-linejoin="round" stroke-width="1.5" d="M0 51.373l37.712 9.269"/><path id="Línea_276" data-name="Línea 276" fill="none" stroke="#000" stroke-linecap="round" stroke-linejoin="round" stroke-width="1.5" d="M10.359 36.483l3.405.837"/></g><path id="Trazado_1873" data-name="Trazado 1873" d="M186.048 11.182s9.392 6.991 28.113 4.858c0 0 0 12.344 6.636 16.125" fill="none" stroke="#000" stroke-linecap="round" stroke-linejoin="round" stroke-width="1.5"/><path id="Trazado_1874" data-name="Trazado 1874" d="M186.048 27.06s-15.292-19.91 6.825-25.475 32.308 5.332 32.308 5.332 20.923 3.436-1.269 41.708" fill="none" stroke="#000" stroke-linecap="round" stroke-linejoin="round" stroke-width="1.5"/><path id="Trazado_1875" data-name="Trazado 1875" d="M161.7 146.952V229.3L45.043 257.975v-91.716a70.644 70.644 0 0153.783-68.6 50.762 50.762 0 0162.874 49.292z" transform="translate(97.72 -28.331)" fill="#f2bc08"/><path id="Trazado_1876" data-name="Trazado 1876" d="M161.734 205.634s-14.352 234.246 26.183 345.153" fill="none" stroke="#000" stroke-linecap="round" stroke-linejoin="round" stroke-width="1.5"/><path id="Trazado_1877" data-name="Trazado 1877" d="M247.176 85.544s63.558 84.325 37.437 134.062-152.141-25.119-153.563-38.391 28.217-6.161 28.217-6.161-3.571-24.172 11.6-.474l56.965 6.162-18.487-44.553" fill="none" stroke="#000" stroke-linecap="round" stroke-linejoin="round" stroke-width="1.5"/><g id="Grupo_2063" data-name="Grupo 2063" transform="translate(162.494 165.797)"><path id="Trazado_1878" data-name="Trazado 1878" d="M125.988 233.958l6.2 14.945-42.7-4.619c9.922-5.203 22.504-8.872 36.5-10.326z" transform="translate(-66.854 -233.958)"/><path id="Trazado_1879" data-name="Trazado 1879" d="M142.115 320.563c-.1 6.363-.212 13.226-.341 20.509-30.095-.247-69.228-16.522-86.891-33.951h-.008c-.225-.222-.44-.444-.658-.667l-.175-.178q-.446-.459-.869-.918l-.155-.166q-.428-.467-.833-.934c-.043-.05-.089-.1-.132-.151q-.41-.475-.794-.95l-.111-.134q-.391-.486-.758-.973l-.084-.11q-.373-.5-.719-.995l-.062-.087q-.351-.508-.673-1.014l-.044-.068q-.327-.517-.624-1.033l-.026-.045q-.3-.525-.569-1.048l-.015-.028q-.272-.532-.51-1.061v-.01a17.033 17.033 0 01-1.521-5.646c28.057 16.356 68.88 33.395 96.572 29.658z" transform="translate(-45.539 -250.42)"/></g><path id="Trazado_1880" data-name="Trazado 1880" d="M176.69 175.211l-.941-2.876a19.7 19.7 0 00-15.459-13.307l-39.139-6.581a14.177 14.177 0 00-15.242 8.083h0a.693.693 0 01-.734.4l-81.716-12.188-1.032-3.5a3.087 3.087 0 00-3.362-2.188l-16.541 2.17A2.9 2.9 0 000 148.099v1.993a2.9 2.9 0 001.839 2.7l13.941 5.489a4.629 4.629 0 005.311-1.415l1.659-2.072 81.779 14.161a.693.693 0 01.494.358l.308.579a37.126 37.126 0 0026.051 19.076l7.518 1.385" fill="#00a3c9" stroke="#000" stroke-linecap="round" stroke-linejoin="round" stroke-width="1.5"/><path id="Trazado_1881" data-name="Trazado 1881" d="M180.897 75.203s-33.377 14.183-82.432 83.775" fill="none" stroke="#000" stroke-linecap="round" stroke-linejoin="round" stroke-width="1.5"/><path id="Trazado_1882" data-name="Trazado 1882" d="M142.767 208.231s-56.739 19.906-72.38 5.214-20.381-54.467-20.381-54.467" fill="none" stroke="#000" stroke-linecap="round" stroke-linejoin="round" stroke-width="1.5"/><path id="Trazado_1883" data-name="Trazado 1883" d="M50.003 152.698s-3.436-34.164-3.08-44.117c0 0-5.875 3.2-11.113 1.422 0 0-3.461 5.688-5.949 5.332s-1.422-12.086 8.176-24.172 52.352-12.009 64.922 61.535" fill="none" stroke="#000" stroke-linecap="round" stroke-linejoin="round" stroke-width="1.5"/></g></g></svg>