<svg xmlns="http://www.w3.org/2000/svg" width="467.312" height="728.572"><g id="Grupo_1983" data-name="Grupo 1983" transform="translate(-938.559 -439.222)"><g id="Grupo_786" data-name="Grupo 786" transform="translate(989.575 440)"><rect id="Rectángulo_398" data-name="Rectángulo 398" width="100.068" height="35.887" rx="17.943" transform="translate(255.72 287.159)" fill="#00a3c9"/><path id="Línea_85" data-name="Línea 85" fill="none" stroke="#000" stroke-linecap="round" stroke-linejoin="round" stroke-width="1.5" d="M273.664 323.046h64.182"/><path id="Línea_86" data-name="Línea 86" fill="none" stroke="#000" stroke-linecap="round" stroke-linejoin="round" stroke-width="1.5" d="M385.833 498.096h-79.908"/><path id="Línea_87" data-name="Línea 87" fill="none" stroke="#000" stroke-linecap="round" stroke-linejoin="round" stroke-width="1.5" d="M305.754 323.046V498.5"/><path id="Trazado_1561" data-name="Trazado 1561" d="M448.8 315.847s-112.5 37.311-154.945 165.668l-18.633 8.285 60.038 18.633 97.3-104.936 68.761-45.771" transform="translate(-275.222 -98.391)" fill="#e2e2e2"/><path id="Trazado_1562" data-name="Trazado 1562" d="M244.03 541.339c-29.94-204.579 73.819-212.706 73.819-212.706l47.958 78.822-47.5-2.037-13.018 158.266-70.421-6.472z" transform="translate(-111.857 -102.353)" fill="#edeeef"/><path id="Trazado_1563" data-name="Trazado 1563" d="M132.174 438.986c-29.941-204.579 73.815-212.706 73.815-212.706" fill="none" stroke="#000" stroke-linecap="round" stroke-linejoin="round" stroke-width="1.5"/><path id="Trazado_1564" data-name="Trazado 1564" d="M170.77 288.3l113.245 27.833s7.489 86.874-113.245 78.822l-65.391-91.542z" transform="translate(59.209 -89.855)" fill="#edeeef"/><path id="Línea_88" data-name="Línea 88" fill="none" stroke="#000" stroke-linecap="round" stroke-linejoin="round" stroke-width="1.5" d="M229.979 305.103l-65.392-91.543"/><path id="Trazado_1565" data-name="Trazado 1565" d="M343.224 226.28s7.489 86.874-113.245 78.822" fill="none" stroke="#000" stroke-linecap="round" stroke-linejoin="round" stroke-width="1.5"/><g id="Grupo_784" data-name="Grupo 784" transform="translate(263.564 11.105)"><path id="Trazado_1566" data-name="Trazado 1566" d="M154.921 32.778v12.755a21.423 21.423 0 0016.31 20.8l20.3 4.989V21.457l-16.877-4.148a15.929 15.929 0 00-19.731 15.469z" transform="translate(-154.921 -16.841)" fill="#edeeef"/><path id="Trazado_1567" data-name="Trazado 1567" d="M0 28.692a21.423 21.423 0 0016.31 20.8l20.3 4.989" fill="none" stroke="#000" stroke-linecap="round" stroke-linejoin="round" stroke-width="1.5"/><circle id="Elipse_147" data-name="Elipse 147" cx=".979" cy=".979" transform="translate(19.701 24.203)" r=".979"/><circle id="Elipse_148" data-name="Elipse 148" cx=".979" cy=".979" transform="translate(4.667 24.203)" r=".979"/><path id="Trazado_1568" data-name="Trazado 1568" d="M10.057 31.021V15.937H2.5" fill="none" stroke="#000" stroke-linecap="round" stroke-linejoin="round" stroke-width="1.5"/><path id="Línea_89" data-name="Línea 89" fill="none" stroke="#000" stroke-linecap="round" stroke-linejoin="round" stroke-width="1.5" d="M22.524 15.937h-7.557"/><g id="Grupo_783" data-name="Grupo 783" transform="translate(34.196 21.1)"><path id="Trazado_1569" data-name="Trazado 1569" d="M204.472 49.981v5.238a5.116 5.116 0 005.117-5.116q0-.236-.021-.466c-.287-3.177-5.096-2.846-5.096.344z" transform="translate(-204.472 -47.415)" fill="#edeeef"/><path id="Trazado_1570" data-name="Trazado 1570" d="M0 7.804a5.116 5.116 0 005.117-5.116" fill="none" stroke="#000" stroke-linecap="round" stroke-linejoin="round" stroke-width="1.5"/></g><path id="Trazado_1571" data-name="Trazado 1571" d="M14.188 34.784a3.388 3.388 0 004.792 0" fill="none" stroke="#172328" stroke-linecap="round" stroke-linejoin="round" stroke-width="1.5"/><path id="Línea_90" data-name="Línea 90" fill="none" stroke="#000" stroke-linecap="round" stroke-linejoin="round" stroke-width="1.5" d="M10.056 31.033l3.305.812"/></g><path id="Trazado_1572" data-name="Trazado 1572" d="M262.508 21.691l28.526 1.38s1.631 9.348 6.727 10.352" fill="none" stroke="#172328" stroke-linecap="round" stroke-linejoin="round" stroke-width="1.5"/><path id="Trazado_1573" data-name="Trazado 1573" d="M262.508 46.305l-12.882-4.179s.69-48.73 42.1-41.369c0 0 26.225 1.055 28.985 29.35s2.329 30.107 2.329 30.107l-22.867-5.4" fill="none" stroke="#172328" stroke-linecap="round" stroke-linejoin="round" stroke-width="1.5"/><path id="Trazado_1574" data-name="Trazado 1574" d="M105.511 150.333v79.939l113.245 27.834v-89.03a68.576 68.576 0 00-52.208-66.594 49.275 49.275 0 00-61.036 47.851z" transform="translate(124.468 -31.825)" fill="#f2bc08"/><path id="Trazado_1575" data-name="Trazado 1575" d="M310.179 78.594s74.891 44.711 101.8 111.995-108.591 25.9-108.591 25.9-22.038 1.439-30.32-8.927l-10.039-.992 1.188-4.756 83.735-18.4-38.828-35.669" fill="none" stroke="#000" stroke-linecap="round" stroke-linejoin="round" stroke-width="1.5"/><g id="Grupo_785" data-name="Grupo 785" transform="translate(300.352 153.838)"><path id="Trazado_1576" data-name="Trazado 1576" d="M130.853 253.236l-30.711 6.749c22.4-8.285-1.478-36.315-1.484-36.322z" transform="translate(-83.252 -223.663)"/><path id="Trazado_1577" data-name="Trazado 1577" d="M155.688 280.86c.94-.677 3.527-1.292 8.243-1.812z" transform="translate(-155.688 -240.825)"/></g><path id="Trazado_1578" data-name="Trazado 1578" d="M239.695 89.109l-33.7 51.053s-11.248-60.731-26.891-66.252-23-8.32-23-8.32l-1.751 5.525 7.268 7.484s-7.059 15.56 4.752 19.241c0 0-34.96 99.3 36.274 106.929" fill="none" stroke="#000" stroke-linecap="round" stroke-linejoin="round" stroke-width="1.5"/></g><g id="Grupo_791" data-name="Grupo 791" transform="translate(838.25 325.25)"><g id="Grupo_790" data-name="Grupo 790"><g id="Grupo_789" data-name="Grupo 789" fill="none" stroke="#000" stroke-linecap="round" stroke-linejoin="round" stroke-width="1.5"><path id="Trazado_1593" data-name="Trazado 1593" d="M171.059 791.794v-44.837h120.219"/><path id="Trazado_1600" data-name="Trazado 1600" d="M171.059 791.794v-44.837h120.219" transform="translate(-70 50)"/><path id="Trazado_1594" data-name="Trazado 1594" d="M226.22 746.957V702.12h120.219"/><path id="Trazado_1595" data-name="Trazado 1595" d="M281.382 702.12v-44.837H401.6"/><path id="Trazado_1596" data-name="Trazado 1596" d="M336.543 657.283v-44.837h120.219"/></g></g></g></g></svg>