<svg xmlns="http://www.w3.org/2000/svg" width="27.042" height="27"><path id="Trazado_1598" data-name="Trazado 1598" d="M-5004.463-5691.9c0-1.458-.025-2.742.023-4.023a1.084 1.084 0 01.493-.68q2.884-1.915 5.806-3.771a2.151 2.151 0 011.025-.3c.984-.04 1.972.006 2.957-.02a1.968 1.968 0 002.128-2.051q.048-4.893-.028-9.787c-.018-1.236-.812-1.941-2.216-1.961-3.91-.056-7.82-.064-11.731-.077a20.1 20.1 0 00-2.307.106 1.849 1.849 0 00-1.818 1.86 401.63 401.63 0 00-.028 9.879c.017 1.365.813 2.027 2.2 2.039 1.1.009 2.2 0 3.346 0v4.415c-2.179-.046-4.375.329-6.431-.712a5.938 5.938 0 01-3.526-5.347q-.147-5.076.016-10.159c.115-3.727 2.494-6.232 6.212-6.333 4.983-.135 9.974-.088 14.958.021a5.855 5.855 0 015.566 5.255c.217 3.806.3 7.636.138 11.443a6.072 6.072 0 01-6.582 5.759 9.825 9.825 0 00-6.78 2.2c-1.028.803-2.186 1.444-3.421 2.244z" transform="translate(5014.636 5718.905)" fill="#00819f"/></svg>