<svg xmlns="http://www.w3.org/2000/svg" width="27" height="27"><g id="Grupo_794" data-name="Grupo 794" transform="translate(-106.866 -86.866)"><g id="Grupo_793" data-name="Grupo 793" transform="translate(106.866 86.866)"><path id="Trazado_1599" data-name="Trazado 1599" d="M133.866 100.019a13.276 13.276 0 01-19.666 11.515l-7.339 2.332 2.392-7.056a13.014 13.014 0 01-1.9-6.791 13.255 13.255 0 0126.509 0zm-13.254-11.058a11.113 11.113 0 00-11.144 11.058 10.943 10.943 0 002.123 6.483l-1.392 4.106 4.282-1.361a11.087 11.087 0 106.132-20.287zm6.693 14.087c-.082-.135-.3-.215-.622-.377s-1.923-.942-2.221-1.049-.516-.161-.731.161-.84 1.049-1.03 1.264-.378.242-.7.081a8.888 8.888 0 01-2.613-1.6 9.806 9.806 0 01-1.808-2.233c-.189-.322-.019-.5.142-.657.147-.145.325-.377.488-.564a2.208 2.208 0 00.325-.539.585.585 0 00-.028-.564c-.081-.161-.731-1.748-1-2.394s-.54-.62-.731-.62a4.685 4.685 0 00-.54.056 1.836 1.836 0 00-.949.4 3.6 3.6 0 00-1.137 2.688 6.239 6.239 0 001.326 3.334c.163.216 2.247 3.577 5.55 4.868s3.3.86 3.9.805a3.279 3.279 0 002.193-1.532 2.679 2.679 0 00.191-1.532zm0 0" transform="translate(-106.866 -86.866)" fill="#00819f" fill-rule="evenodd"/></g></g></svg>