<svg xmlns="http://www.w3.org/2000/svg" width="272.841" height="579.182"><path d="M213.59 61.586l-27.24-5.258 86.491-41.642-36.512 65.738-8.506-9.238-6.333 11.2-4.007-14.18" fill="#00a3c9"/><path d="M103.404 578.141l-4.208-405-55.861 72.356s-12.774 211.548 0 318.038l-15.079 14.606z" fill="#e6e7e9"/><path d="M62.257 221.553S47.946 455.14 88.367 565.735l-8.443 12.405h71.894s7.854-297.109 7.854-361.236z" fill="#e6e7e9"/><path d="M159.671 134.786v82.119L43.343 245.497v-91.458A70.445 70.445 0 0196.974 85.63a50.619 50.619 0 0162.7 49.156z" fill="#77a0d4"/><path d="M62.257 221.557s-14.311 233.584 26.11 344.179l-8.443 12.405" fill="none" stroke="#000" stroke-linecap="round" stroke-linejoin="round" stroke-width="1.5"/><g transform="translate(84.375 19.953)"><path d="M0 20.871v30.357l37.606 9.243V9.243L0 0z" fill="#edeeef"/><circle cx="1.006" cy="1.006" transform="translate(20.238 29.364)" r="1.006"/><circle cx="1.006" cy="1.006" transform="translate(4.794 29.364)" r="1.006"/><path d="M10.331 36.367V20.872H2.568m20.57 0h-7.763" fill="none" stroke="#000" stroke-linecap="round" stroke-linejoin="round" stroke-width="1.5"/><path d="M35.129 28.811v5.381a5.256 5.256 0 005.256-5.255c0-.162-.008-.321-.022-.479-.298-3.264-5.234-2.924-5.234.353z" fill="#edeeef"/><path d="M35.129 34.191a5.256 5.256 0 005.256-5.255" fill="none" stroke="#000" stroke-linecap="round" stroke-linejoin="round" stroke-width="1.5"/><path d="M13.725 44.187a5.32 5.32 0 005.32-5.319" fill="none" stroke="#172328" stroke-linecap="round" stroke-linejoin="round" stroke-width="1.5"/><path fill="none" stroke="#000" stroke-linecap="round" stroke-linejoin="round" stroke-width="1.5" d="M0 51.229l37.606 9.243M10.33 36.38l3.395.834"/></g><path d="M84.375 36.783s-13.464-5.2-5.193-27.649c5.167-14.026 12.3-7.666 16.927-.919a18.985 18.985 0 0013.4 8.037c8.281 1 18.74 6.156 13.627 26.911" fill="none" stroke="#000" stroke-linecap="round" stroke-linejoin="round" stroke-width="1.5"/><path d="M119.504 48.765s-6.411-4.834-3.752-14.4c0 0-30.851-1.761-31.376-12.4m40.384 64.682s34.912 10.636 57.242 68.16c0 0 19.82-82.464 24.553-87.3 7.326-7.484 17.605-12.761 14.3-5.2s-6.617 8.877-6.617 8.877 8.98 7.386 2.836 12.961" fill="none" stroke="#000" stroke-linecap="round" stroke-linejoin="round" stroke-width="1.5"/><path d="M226.562 56.321c.907-.869 13.432 27.016-2.4 42.849 0 0 28.358 219.772-109.848 87.436m-54.516-75.148s-12.873 8.507-27.525 67.113l-7.089-61.442s7.089-6.144 7.089-15.124c0 0 10.871-6.144 7.562-8.507s-17.487 2.363-23.631 8.507-19.378 73.258-14.178 107.76 26.385 47.36 41.314 35.732" fill="none" stroke="#000" stroke-linecap="round" stroke-linejoin="round" stroke-width="1.5"/><path d="M120.524 192.418s10.426 67.907 38.3 88.116v-58.98s-35.824-26.849-38.3-29.136z"/></svg>