<svg xmlns="http://www.w3.org/2000/svg" width="199.214" height="477.079"><path d="M6.335 463.421l18.076-288.983 45.223-5.007 13.518 58-3.509 105.125-25.6 143.307H.003z" fill="#b9aede"/><path d="M39.082 172.98l69.544-4.764 12.645 5.15 5.943 303.712h-64.59l6.83-12.239z" fill="#b9aede"/><path d="M125.984 414.01c-31.2-5.272-52.842-48.523-52.842-91.362h51.054z"/><g transform="translate(52.07 13.206)"><path d="M0 13.716v10.977a18.438 18.438 0 0014.038 17.909l17.468 4.294V3.973L16.981.402A13.709 13.709 0 000 13.715z" fill="#edeeef"/><path d="M0 24.693a18.438 18.438 0 0014.038 17.905l17.468 4.294" fill="none" stroke="#000" stroke-linecap="round" stroke-linejoin="round" stroke-width="1.5"/><circle cx=".842" cy=".842" transform="translate(16.955 20.83)" r=".842"/><circle cx=".842" cy=".842" transform="translate(4.017 20.83)" r=".842"/><path d="M8.655 26.698V13.716h-6.5m17.23 0h-6.504" fill="none" stroke="#000" stroke-linecap="round" stroke-linejoin="round" stroke-width="1.5"/><path d="M29.431 20.367v4.508a4.4 4.4 0 004.4-4.4q0-.2-.018-.4c-.247-2.738-4.382-2.453-4.382.292z" fill="#edeeef"/><path d="M29.431 24.876a4.4 4.4 0 004.4-4.4" fill="none" stroke="#000" stroke-linecap="round" stroke-linejoin="round" stroke-width="1.5"/><path d="M12.211 30.213a2.915 2.915 0 004.123 0" fill="none" stroke="#172328" stroke-linecap="round" stroke-linejoin="round" stroke-width="1.5"/><path stroke-width="1.5" stroke="#000" stroke-linecap="round" stroke-linejoin="round" fill="none" d="M8.655 26.708l2.845.699"/></g><path d="M24.407 105.64v68.8l97.461 23.955v-76.624a59.018 59.018 0 00-44.932-57.313 42.408 42.408 0 00-52.53 41.182z" fill="#edeeef"/><path stroke-width="1.5" stroke="#000" stroke-linecap="round" stroke-linejoin="round" fill="none" d="M69.454 464.839L39.086 172.98"/><path d="M50.66 31.365S27.793 20.316 33.436 10.516s55.088-7.217 72.907 10.424-11.735 19.676-11.735 19.676M64.281 5.335s18.935-13.791 27.528 6.536" fill="none" stroke="#172328" stroke-linecap="round" stroke-linejoin="round" stroke-width="1.5"/><path d="M52.07 29.474a16.85 16.85 0 0015.073-10.2s3.772 12.374 14.359 12.77m8.115-5.122s6.236 10.175 5.544 21.361A22.788 22.788 0 0183.58 51.55m16.949 24.795s49.089 41.57 55.028 140-5.939 85.323-9.5 82.96-13.067-18.4-13.067-18.4-1.038-4.47-5.77-1.782c-15.247 8.663-5.064-11.351-4.117-12.442l-9.025-47.836a177.137 177.137 0 00-14.115-39.221l-24.392-48.821" fill="none" stroke="#000" stroke-linecap="round" stroke-linejoin="round" stroke-width="1.5"/><path d="M198.464 308.61c0 45.715-17.212 82.774-51.819 82.774s-73.503-37.059-73.503-82.774z" fill="#f2bc08"/><path d="M198.464 308.61c0 45.715-17.212 82.774-51.819 82.774s-73.503-37.059-73.503-82.774m83.951-25.466c7.692 6.517 13.016 15.521 13.016 25.466m-68.608.002c0-15.9 6.024-29.4 18.122-34.17M30.532 83.655s-53.779 76.275-8.923 135.578" fill="none" stroke="#000" stroke-linecap="round" stroke-linejoin="round" stroke-width="1.5"/></svg>